<svg width="120px" height="120px" viewBox="0 0 120 120" version="1.1" xmlns="http://www.w3.org/2000/svg" xmlns:xlink="http://www.w3.org/1999/xlink">
    <title>加载失败</title>
    <defs>
        <rect id="path-1" x="0" y="0" width="120" height="120"></rect>
        <linearGradient x1="60.8401192%" y1="22.9992141%" x2="41.7656793%" y2="77.2294141%" id="linearGradient-3">
            <stop stop-color="#DFE1E6" offset="27%"></stop>
            <stop stop-color="#C4C6CC" offset="89%"></stop>
            <stop stop-color="#B5B7BA" offset="100%"></stop>
        </linearGradient>
        <linearGradient x1="12.1806432%" y1="12.4191059%" x2="87.2107003%" y2="86.9760754%" id="linearGradient-4">
            <stop stop-color="#E9EBF0" offset="27%"></stop>
            <stop stop-color="#D1D3D8" offset="89%"></stop>
            <stop stop-color="#C4C6CC" offset="100%"></stop>
        </linearGradient>
        <linearGradient x1="85.0581395%" y1="84.8370872%" x2="15.872093%" y2="16.08728%" id="linearGradient-5">
            <stop stop-color="#E5E5E5" offset="3%"></stop>
            <stop stop-color="#DFDFE1" offset="28%"></stop>
            <stop stop-color="#CFCFD4" offset="61%"></stop>
            <stop stop-color="#C6C7CE" offset="74%"></stop>
            <stop stop-color="#A3A5AB" offset="100%"></stop>
        </linearGradient>
        <linearGradient x1="83.5714286%" y1="83.3597504%" x2="16.9285714%" y2="17.137097%" id="linearGradient-6">
            <stop stop-color="#E5E5E5" offset="0%"></stop>
            <stop stop-color="#E0E0E0" offset="22%"></stop>
            <stop stop-color="#D0D1D3" offset="50%"></stop>
            <stop stop-color="#B7B8BC" offset="81%"></stop>
            <stop stop-color="#A3A5AB" offset="100%"></stop>
        </linearGradient>
        <linearGradient x1="0%" y1="50%" x2="99.8953975%" y2="50%" id="linearGradient-7">
            <stop stop-color="#E5E5E5" offset="27%"></stop>
            <stop stop-color="#C6C7CE" offset="89%"></stop>
            <stop stop-color="#C6C7CE" offset="89%"></stop>
            <stop stop-color="#E5E5E5" offset="100%"></stop>
        </linearGradient>
        <linearGradient x1="84.244186%" y1="84.0282659%" x2="16.4534884%" y2="16.6650094%" id="linearGradient-8">
            <stop stop-color="#E5E5E5" offset="0%"></stop>
            <stop stop-color="#DFDFE0" offset="22%"></stop>
            <stop stop-color="#CFCFD1" offset="51%"></stop>
            <stop stop-color="#B4B5BA" offset="83%"></stop>
            <stop stop-color="#A3A5AB" offset="100%"></stop>
        </linearGradient>
        <linearGradient x1="84.5930233%" y1="84.3749036%" x2="15.872093%" y2="16.08728%" id="linearGradient-9">
            <stop stop-color="#C6C7CE" stop-opacity="0" offset="0%"></stop>
            <stop stop-color="#C5C6CD" stop-opacity="0.03" offset="12%"></stop>
            <stop stop-color="#C1C3C9" stop-opacity="0.13" offset="28%"></stop>
            <stop stop-color="#BCBDC4" stop-opacity="0.29" offset="46%"></stop>
            <stop stop-color="#B4B5BC" stop-opacity="0.52" offset="66%"></stop>
            <stop stop-color="#AAACB2" stop-opacity="0.8" offset="87%"></stop>
            <stop stop-color="#A3A5AB" offset="100%"></stop>
        </linearGradient>
        <linearGradient x1="15.6950673%" y1="15.6885689%" x2="84.3049327%" y2="83.8658281%" id="linearGradient-10">
            <stop stop-color="#A3A5AB" offset="0%"></stop>
            <stop stop-color="#A4A6AC" offset="1%"></stop>
            <stop stop-color="#B7B8BF" offset="19%"></stop>
            <stop stop-color="#C2C3CA" offset="39%"></stop>
            <stop stop-color="#C6C7CE" offset="59%"></stop>
            <stop stop-color="#E5E5E5" offset="100%"></stop>
        </linearGradient>
        <linearGradient x1="13.7795276%" y1="14.0079088%" x2="85.4330709%" y2="84.8184361%" id="linearGradient-11">
            <stop stop-color="#A3A5AB" offset="0%"></stop>
            <stop stop-color="#A4A6AC" offset="1%"></stop>
            <stop stop-color="#B7B8BF" offset="19%"></stop>
            <stop stop-color="#C2C3CA" offset="39%"></stop>
            <stop stop-color="#C6C7CE" offset="59%"></stop>
            <stop stop-color="#E5E5E5" offset="100%"></stop>
        </linearGradient>
        <linearGradient x1="0.392156863%" y1="50%" x2="100.392157%" y2="50%" id="linearGradient-12">
            <stop stop-color="#C6C7CE" offset="0%"></stop>
            <stop stop-color="#C1C2C9" offset="33%"></stop>
            <stop stop-color="#B1B3B9" offset="73%"></stop>
            <stop stop-color="#A3A5AB" offset="100%"></stop>
        </linearGradient>
        <linearGradient x1="9.49225677%" y1="50.9489267%" x2="92.12477%" y2="39.6741455%" id="linearGradient-13">
            <stop stop-color="#DFE1E6" offset="27%"></stop>
            <stop stop-color="#D1D3D8" offset="89%"></stop>
            <stop stop-color="#C4C6CC" offset="100%"></stop>
        </linearGradient>
        <linearGradient x1="89.0037342%" y1="88.4421141%" x2="21.8159778%" y2="17.5876796%" id="linearGradient-14">
            <stop stop-color="#DFE1E6" offset="0%"></stop>
            <stop stop-color="#C4C6CC" offset="89%"></stop>
            <stop stop-color="#B5B7BA" offset="100%"></stop>
        </linearGradient>
        <linearGradient x1="15.3658537%" y1="14.5743803%" x2="83.902439%" y2="84.658132%" id="linearGradient-15">
            <stop stop-color="#E9EBF0" offset="57%"></stop>
            <stop stop-color="#D1D3D8" offset="100%"></stop>
        </linearGradient>
        <linearGradient x1="51.3551243%" y1="0.682911072%" x2="48.5331457%" y2="90.1993573%" id="linearGradient-16">
            <stop stop-color="#DFE1E6" offset="0%"></stop>
            <stop stop-color="#C4C6CC" offset="100%"></stop>
        </linearGradient>
        <linearGradient x1="48.488685%" y1="98.7792079%" x2="51.3965567%" y2="14.7264872%" id="linearGradient-17">
            <stop stop-color="#E5E5E5" offset="0%"></stop>
            <stop stop-color="#E0E0E1" offset="20%"></stop>
            <stop stop-color="#D0D1D6" offset="46%"></stop>
            <stop stop-color="#B7B9C3" offset="74%"></stop>
            <stop stop-color="#B6B8C3" offset="74%"></stop>
            <stop stop-color="#A3A5AB" offset="100%"></stop>
        </linearGradient>
        <linearGradient x1="-7.36981891e-13%" y1="50.0774683%" x2="99.9610948%" y2="50.0774683%" id="linearGradient-18">
            <stop stop-color="#FD855B" offset="0%"></stop>
            <stop stop-color="#E5353E" offset="100%"></stop>
        </linearGradient>
    </defs>
    <g id="页面-1" stroke="none" stroke-width="1" fill="none" fill-rule="evenodd">
        <g id="空状态" transform="translate(-563.000000, -351.000000)">
            <g id="加载失败" transform="translate(563.000000, 351.000000)">
                <mask id="mask-2" fill="white">
                    <use xlink:href="#path-1"></use>
                </mask>
                <g id="path-1"></g>
                <g id="分组-3-copy" mask="url(#mask-2)">
                    <g transform="translate(14.570585, 6.174972)" id="编组">
                        <path d="M7.0678362,80.2880447 L4.82230989,80.2880447 C3.93310557,80.1870797 3.10276223,79.7944427 2.46178357,79.1718435 C1.74213174,78.2775295 1.23142391,77.2346057 0.966783565,76.1188826 C0.174254255,72.8609948 -0.133684746,69.5046907 0.0528361983,66.1575419 C0.107913167,64.8688323 0.371576006,63.5974672 0.833625675,62.3926257 C1.59625726,60.7635754 3.75704673,60.5825698 5.29441515,60.1236522 C5.42152041,60.0878212 4.54994147,65.3430167 4.94336252,70.0853631 C5.2672333,73.554649 5.97983184,76.9768688 7.0678362,80.2880447 Z" id="路径" fill="url(#linearGradient-3)" fill-rule="nonzero"></path>
                        <ellipse id="椭圆形" fill="url(#linearGradient-4)" fill-rule="nonzero" cx="45.0238888" cy="67.122905" rx="40.2742105" ry="40.1470391"></ellipse>
                        <ellipse id="椭圆形" fill="url(#linearGradient-5)" fill-rule="nonzero" cx="36.1567835" cy="40.2315083" rx="5.20526316" ry="5.18882682"></ellipse>
                        <ellipse id="椭圆形" fill="url(#linearGradient-6)" fill-rule="nonzero" cx="41.3620467" cy="63.4726257" rx="4.23684211" ry="4.22346369"></ellipse>
                        <ellipse id="椭圆形" fill="url(#linearGradient-7)" fill-rule="nonzero" cx="22.2841519" cy="2.9624581" rx="2.89315789" ry="2.88402235"></ellipse>
                        <ellipse id="椭圆形" fill="url(#linearGradient-8)" fill-rule="nonzero" opacity="0.6" cx="67.757573" cy="56.3651396" rx="5.20526316" ry="5.18882682"></ellipse>
                        <ellipse id="椭圆形" fill="url(#linearGradient-9)" fill-rule="nonzero" cx="27.670994" cy="87.9988826" rx="5.20526316" ry="5.18882682"></ellipse>
                        <ellipse id="椭圆形" fill="url(#linearGradient-10)" fill-rule="nonzero" cx="18.0412572" cy="59.0560894" rx="1.34973684" ry="1.34547486"></ellipse>
                        <circle id="椭圆形" fill="url(#linearGradient-11)" fill-rule="nonzero" cx="60.627573" cy="36.581229" r="1"></circle>
                        <path d="M20.0015269,13.5865632 L20.2130067,13.5865632 C20.5796014,13.5874206 20.8766499,13.8844687 20.8771938,14.2510634 L20.9242867,45.9944047 C20.924831,46.3617696 20.6274648,46.6600194 20.2601,46.6605651 C20.2594425,46.6605651 20.258785,46.6605651 20.2581274,46.6605651 L20.0466477,46.6605651 C19.680053,46.6597077 19.3830044,46.3626597 19.3824606,45.996065 L19.3353676,14.2527236 C19.3348234,13.8853588 19.6321896,13.587109 19.9995544,13.5865632 C20.0002119,13.5865632 20.0008694,13.5865632 20.0015269,13.5865632 Z" id="矩形" fill="url(#linearGradient-12)" fill-rule="nonzero" transform="translate(20.129827, 30.123564) rotate(-34.830000) translate(-20.129827, -30.123564) "></path>
                        <path d="M30.3946783,15.7052514 L2.72809936,2.9926257 C2.13905036,2.72282647 1.45038945,2.78653142 0.921202785,3.15977365 C0.392016134,3.53301587 0.102579351,4.15917592 0.161783566,4.80268156 L2.95809936,35.1090502 C3.05083894,36.1007509 3.92989476,36.8314337 4.92520462,36.744134 C5.24339311,36.7149303 5.54821652,36.6025434 5.80888883,36.418324 L30.7396783,18.8547486 C31.5584239,18.2781268 31.7534975,17.1491924 31.1754677,16.3327374 C30.9750246,16.0646457 30.7050952,15.8560589 30.3946783,15.7293854 L30.3946783,15.7052514 Z" id="路径" fill="url(#linearGradient-13)" fill-rule="nonzero"></path>
                        <path d="M15.9470467,22.3722905 C16.2714063,22.8238822 16.3294425,23.4136675 16.0992936,23.91948 C15.8691446,24.4252925 15.3857757,24.7702872 14.8312672,24.824508 C14.2767586,24.8787287 13.7353536,24.6339381 13.410994,24.1823463 L13.3807309,24.1461452 C12.8793146,23.448045 13.040551,22.4769282 13.7408626,21.9770951 C14.4411741,21.477262 15.4153671,21.6379892 15.9167835,22.3360894 L15.9470467,22.3722905 Z M12.6665204,17.744581 C12.99088,18.1961727 13.0489162,18.785958 12.8187672,19.2917705 C12.5886183,19.797583 12.1052494,20.1425777 11.5507408,20.1967985 C10.9962323,20.2510192 10.4548273,20.0062286 10.1304677,19.5546368 L5.3609941,12.821229 C4.85957768,12.1231288 5.02081408,11.1520119 5.72112568,10.6521787 C6.42143727,10.1523456 7.39563031,10.3130729 7.89704673,11.0111732 L12.6665204,17.7385475 L12.6665204,17.744581 Z" id="形状" fill="#FFFFFF" fill-rule="nonzero"></path>
                        <path d="M78.3678362,35.8632402 C75.3415204,32.7318435 71.9762572,31.0364245 70.8928362,32.0922905 C70.8444151,32.1405586 68.6473098,33.7394413 67.8665204,34.2764245 L66.1354677,35.4831285 C65.8752046,35.664134 65.6694151,35.8451396 65.7178362,36.1890502 C65.7178362,36.267486 65.7178362,36.3519553 65.7662572,36.430391 C65.8086256,36.6475977 65.8691519,36.8587709 65.9296783,37.0699441 C66.1186851,37.6746144 66.3450835,38.2670336 66.607573,38.8437988 C66.9491675,39.6043308 67.343545,40.3401936 67.7878362,41.0460335 C68.30225,41.8788657 68.8874708,42.6661163 69.5370467,43.3991061 C70.2531466,44.2205755 71.0500223,44.9684458 71.9157309,45.6315083 C72.8676575,46.3535661 73.9017382,46.9611194 74.9965204,47.4415642 C75.4155716,47.6297719 75.8438289,47.7969092 76.2796783,47.9423463 C76.7638888,48.1112849 77.2602046,48.2379888 77.7504677,48.3767597 C77.9238462,48.4309772 78.1097209,48.4309772 78.2830993,48.3767597 C78.4779655,48.2941964 78.6382982,48.1471561 78.7370467,47.9604469 C78.9065204,47.682905 82.0538888,43.2181005 82.0720467,43.2 L82.0720467,43.2 C82.8286256,41.981229 81.2488888,38.7955307 78.3678362,35.8632402 Z" id="路径" fill="url(#linearGradient-14)" fill-rule="nonzero"></path>
                        <ellipse id="椭圆形" fill="url(#linearGradient-15)" fill-rule="nonzero" cx="81.6483625" cy="7.42122905" rx="7.44473684" ry="7.42122905"></ellipse>
                        <path d="M75.0994151,14.0882681 C74.5864629,14.0947492 74.0751174,14.0297636 73.5802046,13.8951955 C72.9599184,13.7414192 72.429007,13.3428596 72.1094151,12.7910614 C71.8128362,12.1877095 71.6554677,11.2163128 72.6178362,9.66569832 C73.0745075,8.9555253 73.6061329,8.29612592 74.2036256,7.69877095 L74.2823098,8.56156424 L74.4336256,9.27955307 C74.1536155,9.60517647 73.902497,9.95442103 73.6830993,10.3233519 L73.6830993,10.3233519 C73.1746783,11.1439106 73.0112572,11.8136313 73.2230993,12.20581 C73.3850818,12.4609729 73.6458199,12.6378897 73.9433625,12.6945251 C75.7591519,13.2315083 79.4694151,12.2359776 83.0223098,10.2811173 C85.9941519,8.64 88.4273098,6.59463687 89.5349414,4.80871508 C90.0433625,3.98815642 90.2067835,3.31843575 89.9949414,2.92625698 C89.8049899,2.6304518 89.5116634,2.41545156 89.1717835,2.32290502 C88.4879515,2.15306219 87.7708759,2.16973418 87.0957309,2.37117318 L85.8549414,1.30927374 C88.6452046,0.705921785 90.4428362,1.06189944 91.1086256,2.32290502 C91.4052046,2.92625698 91.562573,3.89765363 90.6002046,5.44826815 C89.3896783,7.40916201 86.780994,9.61743016 83.627573,11.3550838 C80.4741519,13.0927374 77.350994,14.0882681 75.0994151,14.0882681 Z" id="路径" fill="#D1D3D8" fill-rule="nonzero"></path>
                        <g opacity="0.5" transform="translate(45.730113, 69.653325)" fill="#FFFFFF" fill-rule="nonzero" id="路径">
                            <path d="M16.7979859,4.04611628 C16.6313478,4.33107135 16.6535552,4.68807731 16.8542321,4.95032774 C17.0549089,5.21257817 17.3944366,5.3282983 17.7141752,5.2434194 C18.0339137,5.1585405 18.2707388,4.88981977 18.313997,4.5628135 C18.3572552,4.23580724 18.1984062,3.91507462 17.9116701,3.75047382 C17.5220674,3.5268224 17.0244056,3.65893342 16.7979859,4.04611628 L16.7979859,4.04611628 Z"></path>
                            <path d="M8.90535434,9.92276433 C8.79399385,10.1094674 8.7626812,10.3329854 8.81847148,10.5429571 C8.87426176,10.7529287 9.0124617,10.9316905 9.20193329,11.0389654 C9.45144786,11.2528055 9.80529201,11.2965856 10.0996789,11.150041 C10.3940658,11.0034963 10.5715477,10.6952241 10.5499719,10.367917 C10.5283962,10.0406098 10.3119733,9.75813973 10.0008806,9.65125593 C9.62207028,9.43200935 9.13706467,9.55221011 8.90535434,9.92276433 L8.90535434,9.92276433 Z"></path>
                            <path d="M24.3879859,10.7131554 C24.2232887,10.9989974 24.2476586,11.3556131 24.4497206,11.6165502 C24.6517826,11.8774872 24.9916958,11.991296 25.3108038,11.9048557 C25.6299118,11.8184154 25.8652954,11.5487696 25.9070878,11.221777 C25.9488803,10.8947843 25.7888414,10.5749188 25.5016701,10.4114794 C25.1104856,10.1888423 24.6123363,10.3237815 24.3879859,10.7131554 Z"></path>
                            <path d="M32.9161438,7.41282019 C32.7965369,7.73573058 32.925812,8.0976952 33.2232164,8.27260971 C33.5206207,8.44752421 33.9009677,8.38528717 34.1266701,8.1247755 L34.1266701,8.1247755 C34.3135567,7.90906613 34.3533766,7.6030388 34.2278814,7.34693894 C34.1023861,7.09083908 33.8357643,6.93402895 33.5502028,6.94837111 C33.2646413,6.96271327 33.0151809,7.14544332 32.9161438,7.41282019 L32.9161438,7.41282019 Z"></path>
                            <path d="M16.6587754,0.257066 C16.5250256,0.491194895 16.6065928,0.789064142 16.8411262,0.922979952 C17.0756596,1.05689577 17.3746766,0.976335562 17.509606,0.742880232 C17.6445354,0.509424897 17.5644723,0.211150454 17.3306175,0.0760604142 C17.094639,-0.0564456408 16.7956655,0.0241028622 16.6587754,0.257066 L16.6587754,0.257066 Z"></path>
                            <path d="M14.0379859,9.46421684 C13.9385983,9.63574003 13.9529015,9.85010203 14.0742023,10.0069927 C14.1955032,10.1638835 14.3998088,10.2322704 14.591515,10.180152 C14.7832211,10.1280336 14.9244087,9.96571883 14.9490096,9.76916233 C14.9736104,9.57260583 14.8767585,9.38068607 14.7037754,9.28321125 C14.4696118,9.15126169 14.1725248,9.23202958 14.0379859,9.46421684 L14.0379859,9.46421684 Z"></path>
                            <path d="M9.3956175,2.92388164 C9.27601058,3.24679203 9.40528573,3.60875666 9.70269011,3.78367116 C10.0000944,3.95858566 10.3804413,3.89634862 10.6061438,3.63583695 L10.6061438,3.63583695 C10.7930304,3.42012758 10.8328503,3.11410025 10.707355,2.85800039 C10.5818598,2.60190053 10.315238,2.4450904 10.0296765,2.45943256 C9.74411501,2.47377472 9.49465464,2.65650477 9.3956175,2.92388164 L9.3956175,2.92388164 Z"></path>
                            <path d="M0.0443017126,12.5895799 C-0.0753052024,12.9124903 0.0539699386,13.274455 0.351374293,13.4493695 C0.648778646,13.624284 1.02912556,13.5620469 1.25482803,13.3015352 L1.25482803,13.3015352 C1.44171461,13.0858259 1.48153455,12.7797985 1.35603927,12.5236987 C1.23054399,12.2675988 0.963922213,12.1107887 0.678360715,12.1251309 C0.392799212,12.139473 0.143338855,12.3222031 0.0443017126,12.5895799 L0.0443017126,12.5895799 Z"></path>
                        </g>
                        <ellipse id="椭圆形" fill="url(#linearGradient-16)" fill-rule="nonzero" transform="translate(76.466550, 37.658519) rotate(-43.520000) translate(-76.466550, -37.658519) " cx="76.4665499" cy="37.6585193" rx="2.7377662" ry="7.95203925"></ellipse>
                        <ellipse id="椭圆形" fill="url(#linearGradient-17)" fill-rule="nonzero" transform="translate(76.559558, 37.351440) rotate(-43.386461) translate(-76.559558, -37.351440) " cx="76.5595579" cy="37.3514399" rx="1.51164319" ry="5.63265255"></ellipse>
                        <path d="M42.227573,32.0379888 C40.7723503,32.6627243 39.5164413,33.6726253 38.595994,34.9582123 C38.595994,34.9582123 38.4930993,36.2192178 41.422573,35.4288268 C42.4952879,35.0414843 43.5126629,34.5161481 44.4488888,33.8661452 L44.4488888,32.0560894 L42.227573,32.0379888 Z" id="路径" fill="#333333" fill-rule="nonzero"></path>
                        <path d="M39.4252046,30.2098324 C37.9715786,30.837204 36.7163195,31.8465823 35.7936256,33.1300558 C35.7936256,33.1300558 35.6907309,34.3910614 38.6202046,33.6067039 C39.6939097,33.2190079 40.7114949,32.6915344 41.6465204,32.0379888 L41.6465204,30.2279329 L39.4252046,30.2098324 Z" id="路径" fill="#333333" fill-rule="nonzero"></path>
                        <path d="M46.3312572,5.87061452 C46.3312572,5.87061452 44.9452046,6.81787709 45.1207309,9.1950838 C45.1456768,9.74697458 45.3915854,10.2658463 45.8034064,10.6355416 C46.2152273,11.0052369 46.7585645,11.1948781 47.3117835,11.1620111 L47.3117835,12.7307262 L49.8478362,12.4230167 L49.8478362,10.1363128 L51.4638888,7.9944134 L49.1336256,4.76044692 L46.3312572,5.87061452 Z" id="路径" fill="#FCD9CB" fill-rule="nonzero"></path>
                        <path d="M47.0273098,4.82078212 C47.0273098,4.82078212 50.3199414,3.51150838 51.4820467,5.73184357 C51.4820467,5.73184357 52.9044151,8.96581005 50.1141519,10.2268156 C50.1141519,10.2268156 49.1517835,10.4319553 50.0173098,9.67173184 C50.3869919,9.36285194 50.5962321,8.90353341 50.5862572,8.42279329 C50.5862572,8.42279329 50.4954677,7.7772067 49.5694151,7.92804469 C49.5694151,7.92804469 49.7630993,5.32759776 47.2633625,5.70770949 C47.2633625,5.70770949 45.8954677,6.31106145 45.1267835,5.62927374 C45.1267835,5.62927374 44.7212572,5.20089385 45.035994,4.95955307 C45.035994,4.95955307 45.2902046,4.83284916 45.3265204,5.17675977 C45.3265204,5.17675977 45.4415204,5.47843575 47.0273098,4.82078212 Z" id="路径" fill="#666666" fill-rule="nonzero"></path>
                        <path d="M50.2473098,11.3369832 C49.8524662,11.9015991 49.2345763,12.2713046 48.5490267,12.3531264 C47.8634772,12.4349482 47.1754971,12.221101 46.6580993,11.7653631 C45.3252646,12.129828 44.198078,13.0182775 43.5349414,14.2270391 L43.7407309,16.990391 L53.0920467,26.1673743 L56.5723098,25.8113966 C56.5723098,25.8113966 56.1728362,18.6677095 54.4720467,14.9872625 C54.4720467,14.9872625 52.8438888,11.892067 50.2473098,11.3369832 Z" id="路径" fill="url(#linearGradient-18)" fill-rule="nonzero"></path>
                        <path d="M45.3991519,18.7883799 C45.3991519,18.7883799 43.262573,14.0279329 40.6478362,18.221229 C40.6478362,18.221229 38.3538888,21.7870391 39.3828362,30.6321787 C40.0672222,31.0304199 40.9137133,31.0304199 41.5980993,30.6321787 L45.3991519,18.7883799 Z" id="路径" fill="#666666" fill-rule="nonzero"></path>
                        <path d="M53.4430993,25.9682681 C53.4430993,25.9682681 51.9480993,17.2075977 47.1120467,17.442905 C47.1120467,17.442905 40.847573,17.8411173 41.6646783,31.8147486 C42.4300813,32.6312706 43.6309659,32.873597 44.6546783,32.4181005 C44.6546783,32.4181005 44.9391519,25.014972 47.7657309,26.8974301 C48.6275657,27.806747 49.5717448,28.6348394 50.5862572,29.3711732 C52.7894151,30.8011173 55.8944151,30.9579888 55.9912572,25.7510614 L53.4430993,25.9682681 Z" id="路径" fill="#666666" fill-rule="nonzero"></path>
                        <path d="M51.1673098,18.3660335 L47.8383625,22.8791061 C47.8383625,22.8791061 46.5733625,22.8791061 43.3291519,20.3751955 C43.3291519,20.3751955 41.2046783,19.0900558 44.1765204,17.0929609 L43.5349414,14.2451396 C42.0222579,15.2484572 40.8309607,16.6642845 40.1030993,18.3237988 C39.5546704,19.5090493 39.8331089,20.9114543 40.7930993,21.7991061 C42.5873736,23.5962778 44.8124512,24.9067558 47.2573098,25.606257 C48.1720159,26.1051199 49.3188146,25.7899448 49.8478362,24.8943016 C49.8478362,24.8943016 52.0086256,22.0525139 53.200994,20.4717318 L51.1673098,18.3660335 Z" id="路径" fill="#FCD9CB" fill-rule="nonzero"></path>
                    </g>
                </g>
            </g>
        </g>
    </g>
</svg>
