<svg width="120px" height="120px" viewBox="0 0 120 120" version="1.1" xmlns="http://www.w3.org/2000/svg" xmlns:xlink="http://www.w3.org/1999/xlink">
    <title>404页面</title>
    <defs>
        <rect id="path-1" x="0" y="0" width="120" height="120"></rect>
        <linearGradient x1="-20022.964%" y1="1096.90525%" x2="-19968.8824%" y2="1096.90525%" id="linearGradient-3">
            <stop stop-color="#E9E9E9" offset="0%"></stop>
            <stop stop-color="#D4D4D4" offset="66%"></stop>
            <stop stop-color="#D4D4D4" offset="100%"></stop>
        </linearGradient>
        <linearGradient x1="50.0428051%" y1="97.6695974%" x2="49.8122102%" y2="2.19009311%" id="linearGradient-4">
            <stop stop-color="#FFFFFF" stop-opacity="0" offset="0%"></stop>
            <stop stop-color="#F7F7F9" stop-opacity="0.21" offset="13%"></stop>
            <stop stop-color="#F0F1F3" stop-opacity="0.39" offset="27%"></stop>
            <stop stop-color="#EAEBEE" stop-opacity="0.54" offset="41%"></stop>
            <stop stop-color="#E5E7EB" stop-opacity="0.65" offset="55%"></stop>
            <stop stop-color="#E2E3E8" stop-opacity="0.73" offset="69%"></stop>
            <stop stop-color="#E0E2E7" stop-opacity="0.78" offset="84%"></stop>
            <stop stop-color="#DFE1E6" stop-opacity="0.8" offset="100%"></stop>
        </linearGradient>
        <linearGradient x1="50.0474227%" y1="99.6898424%" x2="49.8095671%" y2="1.20397712%" id="linearGradient-5">
            <stop stop-color="#FFFFFF" stop-opacity="0" offset="0%"></stop>
            <stop stop-color="#F7F7F9" stop-opacity="0.21" offset="13%"></stop>
            <stop stop-color="#F0F1F3" stop-opacity="0.39" offset="27%"></stop>
            <stop stop-color="#EAEBEE" stop-opacity="0.54" offset="41%"></stop>
            <stop stop-color="#E5E7EB" stop-opacity="0.65" offset="55%"></stop>
            <stop stop-color="#E2E3E8" stop-opacity="0.73" offset="69%"></stop>
            <stop stop-color="#E0E2E7" stop-opacity="0.78" offset="84%"></stop>
            <stop stop-color="#DFE1E6" stop-opacity="0.8" offset="100%"></stop>
        </linearGradient>
        <linearGradient x1="50.0690673%" y1="98.2664856%" x2="49.7557294%" y2="2.08684679%" id="linearGradient-6">
            <stop stop-color="#FFFFFF" stop-opacity="0" offset="0%"></stop>
            <stop stop-color="#F7F7F9" stop-opacity="0.21" offset="13%"></stop>
            <stop stop-color="#F0F1F3" stop-opacity="0.39" offset="27%"></stop>
            <stop stop-color="#EAEBEE" stop-opacity="0.54" offset="41%"></stop>
            <stop stop-color="#E5E7EB" stop-opacity="0.65" offset="55%"></stop>
            <stop stop-color="#E2E3E8" stop-opacity="0.73" offset="69%"></stop>
            <stop stop-color="#E0E2E7" stop-opacity="0.78" offset="84%"></stop>
            <stop stop-color="#DFE1E6" stop-opacity="0.8" offset="100%"></stop>
        </linearGradient>
        <linearGradient x1="45.7203937%" y1="6.83648031%" x2="92.2921756%" y2="66.714641%" id="linearGradient-7">
            <stop stop-color="#CCCCCC" offset="0%"></stop>
            <stop stop-color="#D7D7D7" stop-opacity="0.79" offset="15%"></stop>
            <stop stop-color="#E5E5E5" stop-opacity="0.51" offset="37%"></stop>
            <stop stop-color="#F0F0F0" stop-opacity="0.29" offset="57%"></stop>
            <stop stop-color="#F8F8F8" stop-opacity="0.13" offset="75%"></stop>
            <stop stop-color="#FDFDFD" stop-opacity="0.03" offset="90%"></stop>
            <stop stop-color="#FFFFFF" stop-opacity="0" offset="100%"></stop>
        </linearGradient>
        <linearGradient x1="50%" y1="100.167224%" x2="50%" y2="0%" id="linearGradient-8">
            <stop stop-color="#6D6D6D" stop-opacity="0.25" offset="0%"></stop>
            <stop stop-color="#6D6D6D" stop-opacity="0.12" offset="54%"></stop>
            <stop stop-color="#6D6D6D" stop-opacity="0.1" offset="100%"></stop>
        </linearGradient>
        <linearGradient x1="50%" y1="100.021088%" x2="50%" y2="0%" id="linearGradient-9">
            <stop stop-color="#6D6D6D" stop-opacity="0.25" offset="0%"></stop>
            <stop stop-color="#6D6D6D" stop-opacity="0.12" offset="54%"></stop>
            <stop stop-color="#6D6D6D" stop-opacity="0.1" offset="100%"></stop>
        </linearGradient>
        <linearGradient x1="0%" y1="50%" x2="100%" y2="50%" id="linearGradient-10">
            <stop stop-color="#DFE1E6" offset="27%"></stop>
            <stop stop-color="#C4C6CC" offset="89%"></stop>
            <stop stop-color="#B5B7BA" offset="100%"></stop>
        </linearGradient>
        <linearGradient x1="48.7221032%" y1="86.7923588%" x2="63.0373986%" y2="22.5830565%" id="linearGradient-11">
            <stop stop-color="#DFE1E6" offset="27%"></stop>
            <stop stop-color="#C4C6CC" offset="89%"></stop>
            <stop stop-color="#B5B7BA" offset="100%"></stop>
        </linearGradient>
        <linearGradient x1="57.2880625%" y1="80.1477648%" x2="42.6367757%" y2="19.6546356%" id="linearGradient-12">
            <stop stop-color="#DFE1E6" offset="27%"></stop>
            <stop stop-color="#C4C6CC" offset="89%"></stop>
            <stop stop-color="#B5B7BA" offset="100%"></stop>
        </linearGradient>
        <linearGradient x1="-7.36981891e-13%" y1="50.0774683%" x2="99.9610948%" y2="50.0774683%" id="linearGradient-13">
            <stop stop-color="#FD855B" offset="0%"></stop>
            <stop stop-color="#E5353E" offset="100%"></stop>
        </linearGradient>
    </defs>
    <g id="页面-1" stroke="none" stroke-width="1" fill="none" fill-rule="evenodd">
        <g id="空状态" transform="translate(-387.000000, -559.000000)">
            <g id="404页面" transform="translate(387.000000, 559.000000)">
                <mask id="mask-2" fill="white">
                    <use xlink:href="#path-1"></use>
                </mask>
                <g id="path-1"></g>
                <g id="分组-28-copy" mask="url(#mask-2)">
                    <g transform="translate(2.206208, 12.086802)" id="编组">
                        <path d="M40.6517844,7.8432331 L40.6517844,7.8432331 C40.3896673,7.93647019 40.1011057,7.80216325 40.0043866,7.5419109 L38.7575464,4.19388653 C38.6247479,3.95061261 38.7122957,3.64606834 38.9541635,3.50993298 L38.9541635,3.50993298 C39.2148116,3.41892044 39.5009314,3.5499771 39.6015613,3.80647228 L40.8484015,7.15449665 C40.9844306,7.39887959 40.8964798,7.70696503 40.6517844,7.8432331 L40.6517844,7.8432331 Z" id="路径" fill="url(#linearGradient-3)" fill-rule="nonzero"></path>
                        <ellipse id="椭圆形" fill="#B5B7BA" fill-rule="nonzero" cx="38.6904089" cy="2.76858472" rx="1.71680297" ry="1.71227532"></ellipse>
                        <polygon id="矩形" fill="url(#linearGradient-4)" fill-rule="nonzero" opacity="0.900000036" transform="translate(10.963992, 73.593074) rotate(0.450000) translate(-10.963992, -73.593074) " points="6.30544208 58.4003115 15.6231729 58.4001185 15.6225419 88.7858361 6.30481107 88.7860291"></polygon>
                        <polygon id="矩形" fill="url(#linearGradient-5)" fill-rule="nonzero" opacity="0.900000036" transform="translate(109.022092, 81.865292) rotate(0.450000) translate(-109.022092, -81.865292) " points="104.363542 66.6725297 113.681273 66.6723367 113.680642 97.0580543 104.362911 97.0582473"></polygon>
                        <polygon id="矩形" fill="url(#linearGradient-6)" fill-rule="nonzero" opacity="0.889999986" transform="translate(67.544383, 77.426077) rotate(0.572939) translate(-67.544383, -77.426077) " points="53.9248563 52.9270419 81.1648727 52.9260766 81.1639087 101.925112 53.9238923 101.926077"></polygon>
                        <g opacity="0.6" transform="translate(20.519576, 0.000000)" fill="#E5E5E5" fill-rule="nonzero" id="椭圆形">
                            <ellipse transform="translate(25.566433, 22.414324) rotate(-17.840000) translate(-25.566433, -22.414324) " cx="25.5664334" cy="22.4143237" rx="21.5074671" ry="16.6246828"></ellipse>
                        </g>
                        <g opacity="0.8" transform="translate(21.084250, 0.496072)" fill="#FFFFFF" fill-rule="nonzero">
                            <path d="M8.80154991,29.0040957 C6.04411496,20.4618506 12.7722562,10.6569221 23.8307692,7.10323344 C27.2585672,5.98360422 30.8835174,5.59257508 34.4720703,5.95533937 C29.7408782,4.67131675 24.7340867,4.81613079 20.0854532,6.37145097 C9.0221447,9.92035685 2.29400344,19.7252853 5.05143838,28.2723132 C6.90251645,34.0117836 12.5612525,37.7185248 19.4380555,38.464656 C14.3068287,36.9771766 10.3025536,33.6578496 8.80154991,29.0040957 Z" id="路径"></path>
                            <g id="椭圆形">
                                <ellipse transform="translate(25.001760, 21.918252) rotate(-17.840000) translate(-25.001760, -21.918252) " cx="25.0017601" cy="21.9182515" rx="21.0328261" ry="16.2563086"></ellipse>
                            </g>
                        </g>
                        <polygon id="路径" fill="url(#linearGradient-7)" fill-rule="nonzero" points="46.9818959 21.4122976 65.6269517 37.0284398 128.414944 67.5528563 0 103.888486 39.0980297 45.3554547"></polygon>
                        <g opacity="0.8" transform="translate(37.684214, 34.288036)" fill="url(#linearGradient-8)" fill-rule="nonzero" id="矩形">
                            <polygon transform="translate(14.093042, 5.765670) rotate(-17.840000) translate(-14.093042, -5.765670) " points="-0.247967741 4.32419884 28.4318461 4.34626195 28.4340517 7.20714118 -0.245762167 7.18507806"></polygon>
                        </g>
                        <polygon id="矩形" fill="#D6D6D6" fill-rule="nonzero" transform="translate(51.635013, 39.598177) rotate(-17.840000) translate(-51.635013, -39.598177) " points="37.2940032 38.1567062 65.973817 38.1787694 65.9760226 41.0396486 37.2962088 41.0175855"></polygon>
                        <g opacity="0.8" transform="translate(3.381238, 5.034669)" fill="url(#linearGradient-9)" fill-rule="nonzero" id="椭圆形">
                            <ellipse transform="translate(44.882604, 24.124076) rotate(-17.840000) translate(-44.882604, -24.124076) " cx="44.8826042" cy="24.1240763" rx="43.4991568" ry="11.3431017"></ellipse>
                        </g>
                        <path d="M44.9246096,18.7003978 C22.8075836,25.8029924 6.38286245,36.2344798 8.2435316,41.9978646 L88.3290334,16.2850374 C86.4875464,10.5168697 67.0464312,11.5978033 44.9246096,18.7003978 Z" id="路径" fill="#DFE1E6" fill-rule="nonzero" opacity="0.800000012"></path>
                        <path d="M51.6671375,39.5777213 C73.7841635,32.4799096 90.2088847,22.0484222 88.3482156,16.2802545 L8.26271375,41.9978646 C10.1042007,47.7612494 29.5357249,46.6803158 51.6671375,39.5777213 Z" id="路径" fill="#FFFFFF" fill-rule="nonzero"></path>
                        <path d="M51.6671375,39.5777213 C73.7841635,32.4799096 90.2088847,22.0484222 88.3482156,16.2802545 L8.26271375,41.9978646 C10.1042007,47.7612494 29.5357249,46.6803158 51.6671375,39.5777213 Z" id="路径" fill="#C4C6CC" fill-rule="nonzero" opacity="0.800000012"></path>
                        <path d="M31.0484492,26.2838891 L65.479389,26.3103773 C67.0601212,26.3115934 68.3412551,27.5927252 68.3424747,29.1734574 C68.34369,30.7510456 67.065788,32.0309196 65.4881998,32.0321367 C65.4867332,32.0321367 65.4852667,32.0321367 65.4838001,32.0321367 L31.0528604,32.0056484 C29.4721281,32.0044323 28.1909942,30.7233006 28.1897747,29.1425683 C28.1885593,27.5649801 29.4664613,26.2851062 31.0440496,26.2838891 C31.0455161,26.2838891 31.0469827,26.2838891 31.0484492,26.2838891 Z" id="矩形" fill="#B5B7BA" fill-rule="nonzero" opacity="0.800000012" transform="translate(48.266125, 29.158013) rotate(-17.840000) translate(-48.266125, -29.158013) "></path>
                        <g opacity="0.5" transform="translate(43.478514, 42.038506)" fill="#FFFFFF" fill-rule="nonzero" id="路径">
                            <path d="M14.2310026,3.45565204 C14.0463256,3.78119079 14.1580966,4.19430982 14.4819007,4.38300169 C14.8057048,4.57169356 15.221428,4.4659637 15.4150962,4.1456644 C15.6087643,3.82536511 15.5085369,3.40931025 15.1901104,3.21172455 C15.0314762,3.11329101 14.8394418,3.08367147 14.6584055,3.12971397 C14.4773692,3.17575648 14.3230053,3.29347466 14.2310026,3.45565204 L14.2310026,3.45565204 Z"></path>
                            <path d="M7.56520338,8.33898474 C7.38052637,8.66452349 7.49229734,9.07764251 7.81610144,9.26633438 C8.13990554,9.45502625 8.55562881,9.34929639 8.74929697,9.0289971 C8.94296512,8.7086978 8.84273765,8.29264295 8.52431118,8.09505725 C8.365677,7.9966237 8.17364257,7.96700416 7.99260629,8.01304667 C7.81157001,8.05908917 7.65720604,8.17680735 7.56520338,8.33898474 L7.56520338,8.33898474 Z"></path>
                            <path d="M20.5563186,9.10424745 C20.3716416,9.4297862 20.4834125,9.84290523 20.8072167,10.0315971 C21.1310208,10.220289 21.546744,10.1145591 21.7404122,9.79425981 C21.9340803,9.47396052 21.8338529,9.05790566 21.5154264,8.86031996 C21.3567922,8.76188642 21.1647578,8.73226688 20.9837215,8.77830938 C20.8026852,8.82435189 20.6483213,8.94207007 20.5563186,9.10424745 Z"></path>
                            <path d="M27.7448316,6.38756482 C27.6233237,6.57177078 27.6133372,6.80772726 27.7188482,7.00149082 C27.8243591,7.19525437 28.0282377,7.31536738 28.249312,7.31403083 C28.4703863,7.312649 28.6727647,7.19003826 28.7758725,6.9949921 L28.7758725,6.9949921 C28.9250226,6.71284907 28.8258396,6.36361506 28.5504899,6.20139557 C28.2751402,6.03917608 27.9205982,6.12110264 27.7448316,6.38756482 L27.7448316,6.38756482 Z"></path>
                            <path d="M14.1350918,0.270245998 C14.049411,0.397127121 14.0414068,0.560950252 14.1143125,0.695538908 C14.1872183,0.830127564 14.328989,0.913245993 14.4823564,0.911318442 C14.6357237,0.90939089 14.7753494,0.822735814 14.8448316,0.686357598 C14.9435697,0.492556304 14.8740589,0.255586415 14.6861582,0.145422523 C14.4982574,0.0352586306 14.2568492,0.0899406183 14.1350918,0.270245998 L14.1350918,0.270245998 Z"></path>
                            <path d="M11.8763929,7.98983362 C11.7611832,8.18662673 11.8277413,8.43930871 12.0250547,8.55421472 C12.2223682,8.66912073 12.4757183,8.60273823 12.5909283,8.40594523 C12.706138,8.20915212 12.6395799,7.95647014 12.4422665,7.84156413 C12.244953,7.72665812 11.9916029,7.79304062 11.8763929,7.98983362 L11.8763929,7.98983362 Z"></path>
                            <path d="M8.04955282,2.46081051 C7.92804493,2.64501648 7.91805846,2.88097296 8.0235694,3.07473651 C8.12908034,3.26850007 8.33295894,3.38861308 8.55403321,3.38727653 C8.77510747,3.38589469 8.97748588,3.26328396 9.08059371,3.06823779 L9.08059371,3.06823779 C9.22974381,2.78609477 9.13056083,2.43686076 8.85521111,2.27464127 C8.5798614,2.11242178 8.22531943,2.19434834 8.04955282,2.46081051 L8.04955282,2.46081051 Z"></path>
                            <path d="M0.108140181,10.5247664 C-0.0211261317,10.7091984 -0.0356105651,10.9504009 0.070660227,11.1489026 C0.176931019,11.3474043 0.385954672,11.4695788 0.61153032,11.4650417 C0.837105968,11.4605045 1.0410209,11.3300243 1.13918107,11.1274107 L1.13918107,11.1274107 C1.30736102,10.8421268 1.21181792,10.4748812 0.925779586,10.3071448 C0.639741254,10.1394084 0.271524587,10.2346995 0.103344642,10.5199835 L0.108140181,10.5247664 Z"></path>
                        </g>
                        <path d="M52.5334159,55.11526 C52.9584917,55.11526 53.3030838,55.4598521 53.3030838,55.8849279 C53.3030838,55.8849332 53.3030838,55.8849386 53.3030838,55.8849439 L53.3029962,60.104179 C53.3029873,60.5292662 52.9583836,60.8738629 52.5332963,60.8738629 C52.1082204,60.8738629 51.7636284,60.5292708 51.7636284,60.1041949 C51.7636284,60.1041896 51.7636284,60.1041843 51.7636284,60.104179 L51.763716,55.8849439 C51.7637248,55.4598566 52.1083286,55.11526 52.5334159,55.11526 Z" id="矩形" fill="url(#linearGradient-10)" fill-rule="nonzero" transform="translate(52.533356, 57.994561) rotate(0.450000) translate(-52.533356, -57.994561) "></path>
                        <path d="M58.4057263,56.6929901 C58.8290423,56.6924428 59.1726521,57.035164 59.1732007,57.4584801 C59.1732007,57.4591414 59.1732007,57.4598027 59.1732007,57.4604641 L59.1677259,61.6912507 C59.1671763,62.1159854 58.8229981,62.4601639 58.3982634,62.4607143 C57.9749474,62.4612617 57.6313376,62.1185405 57.630789,61.6952244 C57.630789,61.6945631 57.630789,61.6939017 57.630789,61.6932404 L57.6362638,57.4624537 C57.6368134,57.0377191 57.9809916,56.6935406 58.4057263,56.6929901 Z" id="矩形" fill="url(#linearGradient-11)" fill-rule="nonzero" transform="translate(58.401995, 59.576852) rotate(50.710000) translate(-58.401995, -59.576852) "></path>
                        <path d="M46.3451636,56.8355183 C46.7699658,56.8360778 47.1141967,57.1803088 47.1147555,57.605111 L47.1203192,61.8348255 C47.1208753,62.2581858 46.7781254,62.6018385 46.3547651,62.6023959 C46.3540928,62.6023959 46.3534206,62.6023959 46.3527484,62.6023959 C45.9279462,62.6018365 45.5837153,62.2576055 45.5831566,61.8328033 L45.5775928,57.6030889 C45.5770367,57.1797285 45.9197866,56.8360758 46.343147,56.8355183 C46.3438192,56.8355183 46.3444914,56.8355183 46.3451636,56.8355183 Z" id="矩形" fill="url(#linearGradient-12)" fill-rule="nonzero" transform="translate(46.348956, 59.718957) rotate(132.510000) translate(-46.348956, -59.718957) "></path>
                        <path d="M70.4443643,61.8746336 C71.4097235,61.8746336 72.1923017,62.6572118 72.1923017,63.622571 C72.1923017,63.6225831 72.1923017,63.6225952 72.1923017,63.6226073 L72.1919793,79.1482243 C72.1919592,80.1136094 71.4093544,80.896198 70.4439693,80.896198 C69.4786101,80.896198 68.6960319,80.1136198 68.6960319,79.1482606 C68.6960319,79.1482485 68.6960319,79.1482364 68.6960319,79.1482243 L68.6963543,63.6226073 C68.6963744,62.6572222 69.4789792,61.8746336 70.4443643,61.8746336 Z" id="矩形" fill="#DFE1E6" fill-rule="nonzero" transform="translate(70.444167, 71.385416) rotate(0.450000) translate(-70.444167, -71.385416) "></path>
                        <path d="M59.0426199,75.4254965 L59.0426199,75.4254965 C59.0584493,74.4624303 59.8513435,73.6930002 60.817026,73.7036554 L69.4489963,73.765833 C70.4119605,73.7815638 71.1812784,74.5702257 71.1708124,75.5307201 L71.1708124,75.5307201 C71.1655418,75.9933028 70.9761032,76.4348594 70.6440996,76.7579111 C70.3120961,77.0809627 69.8648301,77.2589432 69.4010409,77.2525612 L60.7690706,77.1903837 C59.806461,77.1720836 59.0372549,76.3857267 59.0426199,75.4254965 L59.0426199,75.4254965 Z" id="路径" fill="#DFE1E6" fill-rule="nonzero"></path>
                        <path d="M59.9394424,76.9799364 L59.9394424,76.9799364 C59.5272276,76.7567592 59.2217237,76.3783134 59.0910863,75.9290275 C58.9604489,75.4797417 59.0155472,74.9969971 59.2440892,74.5884904 L63.3634572,66.9980409 C63.5872246,66.5869133 63.9666711,66.282215 64.4171449,66.1519222 C64.8676188,66.0216293 65.3516399,66.0765823 65.7612267,66.3045215 L65.7612267,66.3045215 C66.6063695,66.7689502 66.9152541,67.8279411 66.4517844,68.6720531 L62.3132342,76.3103315 C61.8409167,77.1462192 60.7807557,77.445272 59.9394424,76.9799364 L59.9394424,76.9799364 Z" id="路径" fill="#DFE1E6" fill-rule="nonzero"></path>
                        <path d="M40.048829,62.1913064 C41.0142308,62.1913064 41.7968437,62.9739193 41.7968437,63.9393211 C41.7968437,63.9393365 41.7968437,63.939352 41.7968437,63.9393674 L41.7964331,79.465763 C41.7964076,80.4311978 41.0137609,81.2138239 40.048326,81.2138239 C39.0829242,81.2138239 38.3003113,80.431211 38.3003113,79.4658092 C38.3003113,79.4657938 38.3003113,79.4657784 38.3003113,79.465763 L38.3007218,63.9393674 C38.3007474,62.9739325 39.0833941,62.1913064 40.048829,62.1913064 Z" id="矩形" fill="#DFE1E6" fill-rule="nonzero" transform="translate(40.048578, 71.702565) rotate(0.572939) translate(-40.048578, -71.702565) "></path>
                        <path d="M30.7344932,75.2007006 L30.7344932,75.2007006 C30.7503824,74.2376344 31.5432766,73.4682043 32.5089591,73.4788595 L41.164907,73.5410371 C42.1278713,73.5567679 42.8971892,74.3454298 42.8867232,75.3059242 L42.8867232,75.3059242 C42.8814526,75.7685069 42.692014,76.2100635 42.3600104,76.5331151 C42.0280069,76.8561668 41.5807408,77.0341473 41.1169517,77.0277653 L32.4849814,76.9655877 C32.0178104,76.9643303 31.5704182,76.7773697 31.2418823,76.4461094 C30.9133465,76.1148491 30.7307787,75.6666255 30.7344932,75.2007006 L30.7344932,75.2007006 Z" id="路径" fill="#DFE1E6" fill-rule="nonzero"></path>
                        <path d="M31.6313754,76.7551405 L31.6313754,76.7551405 C31.2191607,76.5319632 30.9136568,76.1535174 30.7830194,75.7042316 C30.652382,75.2549458 30.7074803,74.7722011 30.9360223,74.3636945 L35.0553903,66.773245 C35.5210471,65.9303311 36.5828381,65.622261 37.4291821,66.0845085 L37.4291821,66.0845085 C38.2743249,66.5489372 38.5832095,67.607928 38.1197398,68.45204 L34.0051673,76.0424896 C33.7856347,76.451449 33.4119326,76.7564492 32.9665613,76.8901569 C32.52119,77.0238646 32.0407751,76.9752842 31.6313754,76.7551405 L31.6313754,76.7551405 Z" id="路径" fill="#DFE1E6" fill-rule="nonzero"></path>
                        <path d="M56.2276951,63.9752532 C55.2464257,65.083936 53.8150379,65.6904957 52.3337175,65.6253509 C50.859497,65.6653717 49.4473075,65.033323 48.4972862,63.9082927 C47.4586134,64.9126111 46.8691904,66.2917748 46.8620074,67.7346062 L46.8044609,74.7654574 C46.7806244,77.7926374 49.2218043,80.265924 52.2569888,80.2896976 C55.2921734,80.3134713 57.7719999,77.8787294 57.7958364,74.8515495 L57.8533829,67.8206983 C57.8490129,66.3736092 57.2634899,64.9885974 56.2276951,63.9752532 L56.2276951,63.9752532 Z M54.18,74.7989377 C54.0714779,75.8117483 53.2102564,76.5772254 52.1890223,76.5687168 C51.1677881,76.5599201 50.31973,75.7799607 50.2284758,74.7654574 L50.2716357,69.5042763 C50.3790164,68.4914189 51.2392686,67.7250084 52.2604385,67.7323185 C53.2816083,67.7398406 54.130579,68.518664 54.2231598,69.5329736 L54.18,74.7989377 Z" id="形状" fill="#DFE1E6" fill-rule="nonzero"></path>
                        <path d="M80.1862082,57.2313755 C79.404136,58.8861624 78.9296817,60.6687766 78.7859108,62.4925566 C78.7859108,62.4925566 78.2775836,61.6746821 75.5681041,60.8137616 C75.5218373,60.5556142 75.3961313,60.3182385 75.2084386,60.1345909 C75.0352122,59.8278827 74.6872377,59.6630518 74.3394329,59.7229544 C73.9916282,59.7828571 73.719232,60.0545349 73.6591709,60.4014224 C73.5991099,60.7483099 73.7643767,61.0953667 74.0718959,61.2681363 C74.2567068,61.4604698 74.4989616,61.5879893 74.7624535,61.6316361 C75.5105576,62.2581949 76.4936431,63.5974047 79.1551673,64.3531016 C79.1551673,64.3531016 79.553197,64.7405159 79.8169517,64.0230821 C79.8169517,64.0230821 81.3419331,62.7699644 82.0756505,57.7192305 L80.1862082,57.2313755 Z" id="路径" fill="#FCD9CB" fill-rule="nonzero"></path>
                        <path d="M85.2502974,57.4944345 C85.2865053,59.330268 85.658674,61.1440605 86.3484758,62.8464907 C84.6244779,62.785413 82.8992197,62.92506 81.207658,63.2626023 L81.1069517,64.0948255 C83.1910464,64.6714265 85.3808094,64.7581966 87.5042007,64.3483187 C87.5042007,64.3483187 88.03171,64.5205028 87.9501859,63.7648059 C87.9501859,63.7648059 88.7606319,61.9616556 87.168513,57.1165861 L85.2502974,57.4944345 Z" id="路径" fill="#FCD9CB" fill-rule="nonzero"></path>
                        <polygon id="路径" fill="#FCD9CB" fill-rule="nonzero" points="83.0875093 56.3752378 83.0875093 54.1464102 84.6940148 54.1464102 84.8522676 56.3752378"></polygon>
                        <path d="M79.3326022,84.5990833 C79.3326022,84.5990833 77.2705204,84.4986426 78.8914126,85.4887012 C78.8914126,85.4887012 81.2891821,87.0000951 82.2482899,86.0626482 C82.4530435,85.6766379 82.4117484,85.2067415 82.1427881,84.8621424 C81.2155882,84.6925665 80.2752463,84.6045419 79.3326022,84.5990833 Z" id="路径" fill="#333333" fill-rule="nonzero"></path>
                        <path d="M84.1185502,84.2977611 C84.1185502,84.2977611 82.0804461,83.991656 83.5910409,85.1347672 C83.5910409,85.1347672 85.8353531,86.8805228 86.866394,86.0387338 C87.1058622,85.674202 87.1058622,85.2027597 86.866394,84.8382279 C85.9683518,84.5770607 85.0487704,84.3961904 84.1185502,84.2977611 Z" id="路径" fill="#333333" fill-rule="nonzero"></path>
                        <path d="M81.7255762,66.639324 C81.7255762,66.639324 80.3588476,67.4141525 80.5650557,69.7769011 L80.5650557,84.8621424 L82.1523792,84.8621424 C82.1523792,84.8621424 82.3921561,76.8412325 83.7397026,71.7235381 C83.7397026,71.7235381 84.8714498,76.0998843 84.8186989,84.8621424 C85.4676139,85.1568356 86.2126834,85.1568356 86.8615985,84.8621424 C86.8615985,84.8621424 87.4370632,72.6562021 86.7560966,67.5959024 L81.7255762,66.639324 Z" id="路径" fill="#666666" fill-rule="nonzero"></path>
                        <ellipse id="椭圆形" fill="#FCD9CB" fill-rule="nonzero" transform="translate(84.064371, 52.623096) rotate(-63.010000) translate(-84.064371, -52.623096) " cx="84.0643706" cy="52.6230964" rx="2.48845942" ry="2.13765033"></ellipse>
                        <path d="M85.9984015,50.1861756 C85.9984015,50.1861756 84.5597398,49.153071 83.3800372,50.0283402 C83.3800372,50.0283402 82.5983643,50.5066294 82.4784758,50.0761691 C82.4784758,50.0761691 81.644052,50.6692477 82.8573234,51.4010302 C83.097189,51.5508585 83.3852904,51.6038798 83.662974,51.5492998 C83.662974,51.5492998 84.411078,51.4584249 83.9938661,52.2715165 C83.9938661,52.2715165 83.7444981,52.9363385 83.173829,52.9076412 C83.173829,52.9076412 82.56,53.357233 83.6150186,54.5673047 C83.6150186,54.5673047 85.3510037,55.5238831 86.856803,52.9937332 C86.856803,52.9937332 87.7104089,51.4392933 85.9984015,50.1861756 Z" id="路径" fill="#666666" fill-rule="nonzero"></path>
                        <path d="M87.3651301,59.0919205 L87.7919331,58.9101706 C87.6768401,56.2891458 85.5332342,55.9352118 85.5332342,55.9352118 C84.5024466,56.1691409 83.4338031,56.1838082 82.3969517,55.9782578 C82.3969517,55.9782578 79.9991821,55.7247645 79.3326022,59.4697689 L80.8623792,59.9863213 C80.846668,61.8554335 80.694406,63.720919 80.406803,65.5679562 C80.406803,65.5679562 79.855316,67.2897973 80.8623792,67.6006853 C80.8623792,67.6006853 84.4878067,68.5572637 86.7369145,67.6006853 C86.7369145,67.6006853 87.4706319,67.2897973 87.2596282,65.6875285 C87.0665662,63.6187615 87.079417,61.5360094 87.2979925,59.4697689 C87.2979925,59.4697689 87.3315613,59.3167164 87.3651301,59.0919205 Z" id="路径" fill="url(#linearGradient-13)" fill-rule="nonzero"></path>
                    </g>
                </g>
            </g>
        </g>
    </g>
</svg>
