<svg width="20px" height="21px" viewBox="0 0 20 21" version="1.1" xmlns="http://www.w3.org/2000/svg" xmlns:xlink="http://www.w3.org/1999/xlink">
    <title>编组 7</title>
    <g id="页面-1" stroke="none" stroke-width="1" fill="none" fill-rule="evenodd">
        <g id="我的-开通备份-2" transform="translate(-20.000000, -261.000000)" fill="#000000" fill-rule="nonzero">
            <g id="编组-7" transform="translate(20.000000, 261.500000)">
                <g id="right-circle备份">
                    <rect id="矩形" opacity="0" x="0" y="0" width="20" height="20"></rect>
                    <path d="M10,1.25 C5.16796875,1.25 1.25,5.16796875 1.25,10 C1.25,14.8320312 5.16796875,18.75 10,18.75 C14.8320312,18.75 18.75,14.8320312 18.75,10 C18.75,5.16796875 14.8320312,1.25 10,1.25 Z M10,17.265625 C5.98828125,17.265625 2.734375,14.0117187 2.734375,10 C2.734375,5.98828125 5.98828125,2.734375 10,2.734375 C14.0117187,2.734375 17.265625,5.98828125 17.265625,10 C17.265625,14.0117187 14.0117187,17.265625 10,17.265625 Z" id="形状"></path>
                </g>
                <g id="书" transform="translate(6.000000, 5.882353)">
                    <path d="M5.30718954,0.383442266 C5.83877996,0.784313725 6.46623094,1.46405229 6.77995643,2.09150327 C8.10457516,2.64923747 8.66230937,0.148148148 5.35947712,0.331154684 L5.30718954,0.383442266 Z M4.13071895,2.23093682 L5.18518519,2.23093682 L5.03703704,4.15686275 L4.13071895,4.15686275 L4.13071895,2.23093682 Z M6.91938998,3.55555556 L6.30065359,4.13071895 L6.43137255,2.41394336 C6.61437908,2.37908497 6.68409586,2.34422658 6.75381264,2.26579521 L5.58605664,1.4291939 L5.11546841,1.9869281 L4.13071895,1.9869281 L4.13071895,0.383442266 C4.34858388,0.348583878 4.40087146,0.261437908 4.41830065,0.156862745 L2.77124183,0 L2.77124183,1.9869281 L0.62745098,1.9869281 L0.705882353,2.23093682 L2.77124183,2.23093682 L2.77124183,4.15686275 L0,4.15686275 L0.0784313725,4.40087146 L2.77124183,4.40087146 L2.77124183,8.23529412 L3.03267974,8.23529412 C3.53812636,8.23529412 4.13071895,7.89542484 4.13071895,7.76470588 L4.13071895,4.40087146 L6.35294118,4.40087146 C6.30065359,5.57734205 6.21350763,6.23965142 6.04793028,6.37908497 C5.9869281,6.43137255 5.92592593,6.44880174 5.79520697,6.44880174 C5.62091503,6.44880174 5.04575163,6.42265795 4.68845316,6.39651416 L4.67973856,6.48366013 C5.08061002,6.5708061 5.36819172,6.71895425 5.53376906,6.90196078 C5.69063181,7.07625272 5.7254902,7.37254902 5.7167756,7.73856209 C6.32679739,7.73856209 6.67538126,7.63398693 6.96296296,7.4248366 C7.4248366,7.10239651 7.57298475,6.34422658 7.65141612,4.61873638 C7.83442266,4.59259259 7.93028322,4.53159041 8,4.45315904 L6.91938998,3.55555556 Z" id="形状"></path>
                </g>
            </g>
        </g>
    </g>
</svg>
