<svg width="20px" height="20px" viewBox="0 0 20 20" version="1.1" xmlns="http://www.w3.org/2000/svg" xmlns:xlink="http://www.w3.org/1999/xlink">
    <title>gift</title>
    <g id="页面-1" stroke="none" stroke-width="1" fill="none" fill-rule="evenodd">
        <g id="我的-开通备份-2" transform="translate(-20.000000, -315.000000)" fill-rule="nonzero">
            <g id="gift" transform="translate(20.000000, 315.000000)">
                <rect id="矩形" fill="#000000" opacity="0" x="0" y="0" width="20" height="20"></rect>
                <path d="M17.1875,6.0546875 L14.3046875,6.0546875 C14.5703125,5.63671875 14.7265625,5.140625 14.7265625,4.609375 C14.7265625,3.12304688 13.5175781,1.9140625 12.03125,1.9140625 C11.2226562,1.9140625 10.4941406,2.2734375 10,2.83984375 C9.50585938,2.2734375 8.77734375,1.9140625 7.96875,1.9140625 C6.48242188,1.9140625 5.2734375,3.12304688 5.2734375,4.609375 C5.2734375,5.140625 5.42773438,5.63671875 5.6953125,6.0546875 L2.8125,6.0546875 C2.46679688,6.0546875 2.1875,6.33398438 2.1875,6.6796875 L2.1875,10.5859375 C2.1875,10.671875 2.2578125,10.7421875 2.34375,10.7421875 L3.125,10.7421875 L3.125,17.4609375 C3.125,17.8066406 3.40429688,18.0859375 3.75,18.0859375 L16.25,18.0859375 C16.5957031,18.0859375 16.875,17.8066406 16.875,17.4609375 L16.875,10.7421875 L17.65625,10.7421875 C17.7421875,10.7421875 17.8125,10.671875 17.8125,10.5859375 L17.8125,6.6796875 C17.8125,6.33398438 17.5332031,6.0546875 17.1875,6.0546875 Z M10.6640625,4.609375 C10.6640625,3.85546875 11.2773437,3.2421875 12.03125,3.2421875 C12.7851562,3.2421875 13.3984375,3.85546875 13.3984375,4.609375 C13.3984375,5.36328125 12.7851562,5.9765625 12.03125,5.9765625 L10.6640625,5.9765625 L10.6640625,4.609375 Z M7.96875,3.2421875 C8.72265625,3.2421875 9.3359375,3.85546875 9.3359375,4.609375 L9.3359375,5.9765625 L7.96875,5.9765625 C7.21484375,5.9765625 6.6015625,5.36328125 6.6015625,4.609375 C6.6015625,3.85546875 7.21484375,3.2421875 7.96875,3.2421875 Z M3.515625,9.4140625 L3.515625,7.3828125 L9.3359375,7.3828125 L9.3359375,9.4140625 L3.515625,9.4140625 Z M4.453125,10.7421875 L9.3359375,10.7421875 L9.3359375,16.7578125 L4.453125,16.7578125 L4.453125,10.7421875 Z M15.546875,16.7578125 L10.6640625,16.7578125 L10.6640625,10.7421875 L15.546875,10.7421875 L15.546875,16.7578125 Z M16.484375,9.4140625 L10.6640625,9.4140625 L10.6640625,7.3828125 L16.484375,7.3828125 L16.484375,9.4140625 Z" id="形状" fill="#FA414A"></path>
            </g>
        </g>
    </g>
</svg>
