<svg width="20px" height="20px" viewBox="0 0 20 20" version="1.1" xmlns="http://www.w3.org/2000/svg" xmlns:xlink="http://www.w3.org/1999/xlink">
    <title>编组 6</title>
    <g id="页面-1" stroke="none" stroke-width="1" fill="none" fill-rule="evenodd">
        <g id="我的-开通备份-2" transform="translate(-20.000000, -207.000000)" fill="#000000" fill-rule="nonzero">
            <g id="编组-6" transform="translate(20.000000, 207.000000)">
                <rect id="矩形" opacity="0" x="0" y="0" width="20" height="20"></rect>
                <path d="M10.0018709,1.01464844 C10.1092927,1.01464844 10.2167146,1.02832031 10.2967927,1.05566406 L10.2967927,1.05566406 L16.9335115,3.31738281 C17.0956209,3.37402344 17.2284334,3.55957031 17.2246111,3.73144531 L17.2246111,3.73144531 L17.2246111,13.1533203 C17.2246111,13.3271484 17.113199,13.5537109 16.9784334,13.6591797 L16.9784334,13.6591797 L10.2460115,18.9052734 C10.1796052,18.9580078 10.0897615,18.9853516 9.99991775,18.9853516 C9.910074,18.9853516 9.82218337,18.9580078 9.753824,18.9052734 L9.753824,18.9052734 L3.02140212,13.6591797 C2.8866365,13.5517578 2.77530837,13.3251953 2.77530837,13.1533203 L2.77530837,13.1533203 L2.77530837,3.73144531 C2.77530837,3.55957031 2.90812087,3.37207031 3.07023025,3.31738281 L3.07023025,3.31738281 L9.706949,1.05566406 C9.78702712,1.02832031 9.894449,1.01464844 10.0018709,1.01464844 Z M10.0018709,2.44238281 L4.18155837,4.42675781 L4.18155837,12.7783203 L10.0018709,17.3134766 L15.8221834,12.7783203 L15.8221834,4.42675781 L10.0018709,2.44238281 Z" id="形状结合"></path>
                <path d="M12.4941406,9.87320801 L7.68945313,6.39664551 C7.5859375,6.32242676 7.44140625,6.39469239 7.44140625,6.52359864 L7.44140625,7.43961426 C7.44140625,7.63883301 7.53710938,7.82828614 7.69921875,7.94547364 L10.5390625,10.0001611 L7.69921875,12.0548486 C7.53710938,12.1720361 7.44140625,12.3595361 7.44140625,12.560708 L7.44140625,13.4767236 C7.44140625,13.6036768 7.5859375,13.6778955 7.68945312,13.6036768 L12.4941406,10.1271143 C12.5800781,10.0646143 12.5800781,9.93570801 12.4941406,9.87320801 Z" id="路径" transform="translate(10.000000, 10.000000) rotate(-270.000000) translate(-10.000000, -10.000000) "></path>
            </g>
        </g>
    </g>
</svg>
