<svg width="108px" height="18px" viewBox="0 0 108 18" version="1.1" xmlns="http://www.w3.org/2000/svg" xmlns:xlink="http://www.w3.org/1999/xlink">
    <title>开通会员成功</title>
    <g id="页面-1" stroke="none" stroke-width="1" fill="none" fill-rule="evenodd">
        <g id="我的-开通成功" transform="translate(-148.000000, -125.000000)" fill="#FEDAA6" fill-rule="nonzero">
            <g id="开通会员成功" transform="translate(148.504000, 125.484000)">
                <path d="M7.326,8.01 L7.326,7.794 L7.326,2.412 L9.774,2.412 L9.774,8.01 L7.326,8.01 Z M13.68,8.01 L12.564,8.01 L12.564,2.412 L15.822,2.412 C16.074,2.412 16.272,2.322 16.326,2.124 C15.516,1.386 14.13,0.306 14.13,0.306 L12.924,1.908 L0.846,1.908 L0.99,2.412 L4.554,2.412 L4.554,7.812 L4.554,8.01 L0.09,8.01 L0.234,8.514 L4.554,8.514 C4.464,11.88 3.726,14.742 0,17.064 L0.108,17.19 C6.3,15.372 7.218,11.952 7.308,8.514 L9.774,8.514 L9.774,17.082 L10.296,17.082 C11.736,17.082 12.564,16.506 12.564,16.344 L12.564,8.514 L16.56,8.514 C16.812,8.514 17.01,8.424 17.064,8.226 C16.308,7.398 14.904,6.084 14.904,6.084 L13.68,8.01 Z" id="开"></path>
                <path d="M18.522,0.63 C19.278,1.692 20.07,3.186 20.34,4.554 C22.662,6.246 24.66,1.728 18.666,0.54 L18.522,0.63 Z M27.576,5.598 L27.576,7.56 L26.316,7.56 L26.316,5.598 L27.576,5.598 Z M31.14,5.598 L31.14,7.56 L29.808,7.56 L29.808,5.598 L31.14,5.598 Z M29.808,10.08 L29.808,8.064 L31.14,8.064 L31.14,10.08 L29.808,10.08 Z M26.316,10.08 L26.316,8.064 L27.576,8.064 L27.576,10.08 L26.316,10.08 Z M26.316,10.584 L27.576,10.584 L27.576,13.86 L27.99,13.86 C29.124,13.86 29.79,13.482 29.808,13.374 L29.808,10.584 L31.14,10.584 L31.14,11.862 C31.14,12.042 31.104,12.15 30.888,12.15 C30.654,12.15 30.114,12.114 30.114,12.114 L30.114,12.33 C30.618,12.438 30.762,12.69 30.87,12.978 C30.996,13.266 31.014,13.77 31.032,14.436 C33.246,14.238 33.534,13.482 33.534,12.06 L33.534,5.994 C33.912,5.922 34.146,5.742 34.254,5.616 L32.022,3.906 L30.96,5.094 L29.826,5.094 C30.474,4.824 30.87,4.176 30.33,3.6 C31.338,3.276 32.418,2.862 33.138,2.466 C33.534,2.448 33.696,2.394 33.858,2.232 L31.68,0.18 L30.384,1.44 L23.508,1.44 L23.67,1.944 L30.294,1.944 C30.06,2.304 29.772,2.718 29.484,3.096 C28.692,2.79 27.414,2.574 25.47,2.574 L25.398,2.79 C26.856,3.312 27.666,4.122 28.08,4.788 C28.206,4.914 28.368,5.022 28.512,5.094 L26.424,5.094 L23.922,4.104 L23.922,13.968 C23.346,13.716 22.86,13.41 22.428,13.014 L22.428,7.56 C22.95,7.47 23.22,7.326 23.364,7.146 L20.952,5.22 L19.818,6.732 L17.874,6.732 L17.982,7.236 L20.106,7.236 L20.106,13.32 C19.386,13.752 18.54,14.292 17.874,14.634 L19.53,17.19 C19.674,17.1 19.782,16.956 19.728,16.776 C20.268,15.66 21.06,14.292 21.402,13.608 C21.6,13.248 21.798,13.194 22.05,13.608 C23.418,15.876 24.966,16.902 28.782,16.902 L33.426,16.902 C33.534,15.858 34.092,14.958 35.064,14.706 L35.064,14.508 C33.12,14.634 31.518,14.652 29.592,14.652 C27.504,14.67 25.974,14.544 24.804,14.256 C25.614,14.112 26.316,13.716 26.316,13.5 L26.316,10.584 Z" id="通"></path>
                <path d="M48.672,9.684 L36.846,9.684 L36.99,10.188 L42.678,10.188 C41.85,11.52 39.942,13.518 38.592,14.058 C38.34,14.184 37.818,14.274 37.818,14.274 L38.88,17.172 C39.096,17.082 39.276,16.938 39.456,16.704 C43.254,16.056 46.368,15.426 48.546,14.904 C48.942,15.552 49.302,16.218 49.554,16.848 C52.182,18.432 53.748,13.266 46.332,11.682 L46.17,11.79 C46.818,12.528 47.556,13.428 48.186,14.364 C45.108,14.4 42.174,14.4 40.176,14.382 C42.048,13.716 44.136,12.636 45.288,11.772 C45.648,11.826 45.864,11.718 45.954,11.538 L43.524,10.188 L52.002,10.188 C52.272,10.188 52.47,10.098 52.524,9.9 C51.588,9.108 50.04,7.956 50.04,7.956 L48.672,9.684 Z M45.648,6.696 L40.05,6.696 L40.194,7.2 L48.474,7.2 C48.744,7.2 48.942,7.11 48.978,6.912 C48.168,6.21 46.836,5.238 46.836,5.238 L45.648,6.696 Z M42.894,0 C42.174,2.556 38.934,6.354 35.874,8.352 L35.982,8.55 C39.582,7.182 43.47,4.356 45.252,1.548 C46.296,4.482 48.636,6.48 51.246,7.848 C51.408,6.912 52.092,5.814 53.136,5.508 L53.154,5.22 C50.544,4.59 47.178,3.492 45.54,1.332 C46.152,1.278 46.404,1.152 46.476,0.9 L42.894,0 Z" id="会"></path>
                <path d="M65.718,1.8 L65.718,4.356 L59.634,4.356 L59.634,1.8 L65.718,1.8 Z M59.634,4.86 L65.718,4.86 L65.718,5.688 L66.168,5.688 C67.014,5.688 68.256,5.202 68.274,5.058 L68.274,2.16 C68.598,2.088 68.814,1.926 68.904,1.8 L66.636,0.126 L65.538,1.296 L59.76,1.296 L57.078,0.288 L57.078,5.904 L57.438,5.904 C58.464,5.904 59.634,5.364 59.634,5.148 L59.634,4.86 Z M66.996,13.5 C67.824,13.5 69.084,13.068 69.102,12.924 L69.102,7.686 C69.426,7.632 69.624,7.47 69.732,7.344 L67.482,5.652 L66.366,6.84 L58.77,6.84 L55.998,5.778 L55.998,14.22 L56.376,14.22 C57.456,14.22 58.608,13.644 58.608,13.392 L58.608,7.344 L66.546,7.344 L66.546,13.464 C65.664,13.266 64.602,13.122 63.324,13.014 C63.792,11.826 63.828,10.404 63.882,8.73 C64.278,8.676 64.458,8.514 64.494,8.244 L61.092,7.974 C61.074,12.51 61.416,15.084 54.648,16.974 L54.738,17.19 C59.94,16.434 62.136,15.228 63.09,13.482 C65.322,14.526 66.726,15.84 67.482,16.722 C69.498,18.468 73.206,14.994 66.69,13.5 L66.996,13.5 Z" id="员"></path>
                <path d="M77.976,7.686 C77.904,10.494 77.778,11.718 77.49,11.988 C77.382,12.078 77.256,12.114 77.022,12.114 C76.734,12.114 76.104,12.096 75.744,12.06 C76.14,10.548 76.194,9.018 76.194,7.722 L76.194,7.686 L77.976,7.686 Z M88.884,11.088 L88.722,11.034 C88.326,11.844 87.732,12.87 87.408,13.338 C87.192,13.644 87.048,13.644 86.796,13.374 C86.22,12.87 85.734,12.312 85.32,11.682 C86.382,10.242 87.174,8.712 87.768,7.2 C88.236,7.218 88.398,7.074 88.47,6.858 L85.176,5.742 C84.924,6.84 84.582,7.992 84.114,9.108 C83.628,7.65 83.394,6.03 83.286,4.374 L88.47,4.374 C88.74,4.374 88.938,4.284 88.992,4.086 C88.452,3.618 87.696,3.042 87.174,2.628 C87.786,1.8 87.246,0.234 84.042,0.612 L83.916,0.72 C84.528,1.224 85.23,2.124 85.482,2.952 C85.608,3.024 85.734,3.06 85.86,3.096 L85.248,3.87 L83.268,3.87 C83.214,2.898 83.214,1.926 83.232,0.972 C83.7,0.9 83.862,0.684 83.88,0.45 L80.658,0.144 C80.658,1.404 80.694,2.646 80.766,3.87 L76.572,3.87 L73.584,2.862 L73.584,7.722 C73.584,10.782 73.458,14.382 71.766,17.19 L71.892,17.316 C74.106,15.948 75.186,14.076 75.708,12.186 L75.708,12.276 C76.266,12.438 76.572,12.654 76.788,12.978 C77.004,13.302 77.04,13.86 77.04,14.562 C77.994,14.562 78.66,14.364 79.2,13.968 C80.064,13.32 80.28,12.078 80.388,8.082 C80.748,8.028 80.964,7.902 81.09,7.758 L79.02,6.03 L77.814,7.182 L76.194,7.182 L76.194,4.374 L80.802,4.374 C81.018,7.146 81.504,9.738 82.584,12.042 C81.396,13.878 79.794,15.57 77.724,16.83 L77.85,17.028 C80.19,16.236 82.044,15.066 83.502,13.698 C83.988,14.454 84.546,15.156 85.212,15.804 C86.04,16.614 87.786,17.532 88.83,16.614 C89.208,16.29 89.1,15.588 88.398,14.31 L88.884,11.088 Z" id="成"></path>
                <path d="M98.244,9.198 C97.218,9.522 96.192,9.828 95.22,10.116 L95.22,3.366 L97.902,3.366 C98.154,3.366 98.352,3.276 98.406,3.078 C97.614,2.322 96.264,1.206 96.264,1.206 L95.058,2.862 L90.306,2.862 L90.45,3.366 L92.664,3.366 L92.664,10.854 C91.476,11.178 90.504,11.43 89.91,11.574 L91.368,14.31 C91.584,14.22 91.764,14.022 91.836,13.788 C94.968,11.898 97.02,10.422 98.298,9.378 L98.244,9.198 Z M104.868,3.564 L103.518,4.896 L101.574,4.896 C101.646,3.618 101.646,2.304 101.682,0.918 C102.114,0.864 102.294,0.684 102.348,0.414 L99.054,0.108 C99.054,1.782 99.072,3.384 99.036,4.896 L96.498,4.896 L96.66,5.4 L99.018,5.4 C98.802,9.954 97.83,13.752 93.366,16.992 L93.546,17.226 C100.008,14.49 101.25,10.422 101.556,5.4 L103.716,5.4 C103.536,10.782 103.23,13.662 102.582,14.22 C102.402,14.382 102.222,14.436 101.916,14.436 C101.484,14.436 100.35,14.382 99.576,14.31 L99.576,14.526 C100.422,14.724 100.998,15.03 101.322,15.426 C101.61,15.768 101.718,16.362 101.7,17.172 C102.978,17.172 103.806,16.902 104.508,16.254 C105.642,15.21 106.002,12.6 106.236,5.85 C106.65,5.778 106.902,5.652 107.046,5.49 L104.868,3.564 Z" id="功"></path>
            </g>
        </g>
    </g>
</svg>
