<svg width="72px" height="18px" viewBox="0 0 72 18" version="1.1" xmlns="http://www.w3.org/2000/svg" xmlns:xlink="http://www.w3.org/1999/xlink">
    <title>最近阅读</title>
    <g id="页面-1" stroke="none" stroke-width="1" fill="none" fill-rule="evenodd">
        <g id="我的-开通成功" transform="translate(-20.000000, -237.000000)" fill="#222222" fill-rule="nonzero">
            <g id="编组-7" transform="translate(20.000000, 232.000000)">
                <g id="最近阅读" transform="translate(0.432000, 5.538000)">
                    <path d="M11.754,1.836 L11.754,3.33 L5.382,3.33 L5.382,1.836 L11.754,1.836 Z M5.382,5.382 L5.382,3.834 L11.754,3.834 L11.754,5.382 L5.382,5.382 Z M5.382,5.886 L11.754,5.886 L11.754,6.57 L12.204,6.57 C13.032,6.57 14.346,6.156 14.364,6.03 L14.364,2.25 C14.742,2.178 14.976,1.998 15.084,1.872 L12.708,0.09 L11.574,1.332 L5.526,1.332 L2.79,0.288 L2.79,6.876 L3.15,6.876 C4.212,6.876 5.382,6.318 5.382,6.102 L5.382,5.886 Z M4.284,11.898 L6.426,11.898 L6.426,13.392 C5.67,13.464 4.968,13.536 4.284,13.608 L4.284,11.898 Z M6.426,7.74 L6.426,9.288 L4.284,9.288 L4.284,7.74 L6.426,7.74 Z M4.284,9.792 L6.426,9.792 L6.426,11.394 L4.284,11.394 L4.284,9.792 Z M8.82,13.77 C9.36,13.572 9.846,13.392 10.278,13.212 L10.26,12.96 L8.82,13.122 L8.82,7.74 L16.668,7.74 C16.92,7.74 17.136,7.65 17.19,7.452 C16.344,6.66 14.886,5.454 14.886,5.454 L13.59,7.236 L0,7.236 L0.144,7.74 L1.944,7.74 L1.944,13.824 C1.152,13.896 0.486,13.95 0,13.986 L1.044,16.542 C1.26,16.506 1.458,16.344 1.584,16.128 C3.474,15.552 5.076,15.048 6.426,14.598 L6.426,17.208 L6.858,17.208 C8.082,17.208 8.802,16.776 8.82,16.668 L8.82,13.77 Z M13.41,9.792 C13.212,10.764 12.888,11.736 12.474,12.636 C11.574,11.952 10.872,11.034 10.422,9.792 L13.41,9.792 Z M14.526,8.064 L13.32,9.288 L8.946,9.288 L9.108,9.792 L10.134,9.792 C10.458,11.646 10.944,13.032 11.628,14.112 C10.89,15.21 9.954,16.182 8.784,16.938 L8.91,17.136 C10.332,16.65 11.52,16.002 12.492,15.21 C13.23,15.984 14.13,16.578 15.21,17.118 C15.552,15.858 16.272,15.048 17.298,14.778 L17.316,14.58 C16.182,14.346 15.102,14.058 14.112,13.608 C14.958,12.564 15.552,11.394 15.966,10.134 C16.362,10.08 16.524,10.026 16.632,9.828 L14.526,8.064 Z" id="最"></path>
                    <path d="M19.026,0.522 C19.89,1.602 20.826,3.15 21.186,4.554 C23.598,6.174 25.434,1.494 19.17,0.432 L19.026,0.522 Z M29.466,6.732 L29.466,14.04 L29.934,14.04 C31.248,14.04 32.022,13.626 32.022,13.518 L32.022,6.732 L34.65,6.732 C34.902,6.732 35.1,6.642 35.154,6.444 C34.29,5.67 32.814,4.536 32.814,4.536 L31.536,6.228 L27.36,6.228 L27.36,6.066 L27.36,2.772 C29.358,2.736 31.464,2.592 32.886,2.412 C33.498,2.664 33.948,2.664 34.2,2.484 L31.806,0.036 C30.726,0.666 28.71,1.548 26.928,2.196 L24.84,1.584 L24.84,6.012 C24.84,8.46 24.768,11.34 23.436,13.59 C23.112,13.41 22.842,13.194 22.572,12.96 L22.572,7.506 C23.094,7.416 23.364,7.272 23.508,7.092 L21.096,5.166 L19.962,6.678 L18.018,6.678 L18.126,7.182 L20.25,7.182 L20.25,13.23 C19.476,13.662 18.54,14.22 17.82,14.58 L19.458,17.154 C19.62,17.064 19.71,16.92 19.674,16.722 C20.286,15.606 21.168,14.202 21.528,13.554 C21.744,13.194 21.942,13.14 22.194,13.554 C23.562,15.822 25.11,16.848 28.926,16.848 L33.57,16.848 C33.678,15.804 34.236,14.904 35.208,14.652 L35.208,14.454 C33.264,14.58 31.662,14.598 29.736,14.598 C26.82,14.616 25.02,14.4 23.724,13.752 C26.784,11.916 27.288,9.054 27.36,6.732 L29.466,6.732 Z" id="近"></path>
                    <path d="M38.79,0.108 C39.384,0.702 40.014,1.674 40.284,2.574 L37.224,2.286 L37.224,17.136 L37.638,17.136 C38.592,17.136 39.6,16.614 39.6,16.38 L39.6,3.186 C40.05,3.132 40.248,2.988 40.338,2.79 C42.48,4.086 44.118,0.054 38.916,0 L38.79,0.108 Z M41.58,3.186 C42.012,3.816 42.48,4.788 42.57,5.634 C44.226,6.912 46.026,3.762 41.742,3.096 L41.58,3.186 Z M46.08,6.588 L46.08,9.486 L42.84,9.486 L42.84,6.588 L46.08,6.588 Z M48.708,10.926 L48.51,10.926 C48.258,11.7 48.024,12.33 47.88,12.546 C47.808,12.672 47.718,12.708 47.592,12.708 L47.214,12.708 L46.782,12.708 C46.566,12.708 46.53,12.654 46.53,12.474 L46.53,10.566 C47.232,10.548 48.258,10.17 48.276,10.026 L48.276,6.804 C48.528,6.75 48.708,6.642 48.78,6.534 L46.872,5.112 L45.936,6.084 L45.414,6.084 C46.26,5.472 47.088,4.716 47.664,4.158 C48.06,4.194 48.276,4.05 48.348,3.834 L45.486,2.952 C45.324,3.852 45.018,5.148 44.712,6.084 L42.93,6.084 L40.644,5.202 L40.644,10.764 L40.95,10.764 C41.328,10.764 41.724,10.674 42.048,10.566 C41.976,12.258 41.616,13.86 39.636,15.264 L39.834,15.516 C43.308,14.184 43.992,12.186 44.172,9.99 L44.622,9.99 L44.622,12.87 C44.622,14.004 44.784,14.4 46.134,14.4 L46.98,14.4 C48.708,14.4 49.284,14.04 49.284,13.356 C49.284,13.032 49.212,12.798 48.762,12.6 L48.708,10.926 Z M50.346,0.36 L49.284,1.584 L42.876,1.584 L43.038,2.088 L49.464,2.088 L49.464,14.166 C49.464,14.418 49.374,14.544 49.068,14.544 C48.654,14.544 46.62,14.436 46.62,14.436 L46.62,14.67 C47.61,14.85 48.006,15.102 48.33,15.462 C48.636,15.804 48.744,16.38 48.798,17.154 C51.48,16.902 51.84,16.02 51.84,14.436 L51.84,2.466 C52.2,2.394 52.434,2.232 52.56,2.088 L50.346,0.36 Z" id="阅"></path>
                    <path d="M55.188,0.36 C55.818,1.17 56.538,2.358 56.808,3.474 C59.04,4.932 60.912,0.72 55.332,0.27 L55.188,0.36 Z M60.264,12.348 C59.67,12.582 59.076,12.816 58.5,13.032 L58.5,5.85 C58.968,5.796 59.184,5.652 59.274,5.526 L57.258,3.852 L56.142,4.95 L53.964,4.95 L54.126,5.454 L56.106,5.454 L56.106,12.978 C56.106,13.392 55.962,13.59 55.044,14.13 L56.862,16.758 C57.096,16.578 57.348,16.29 57.492,15.876 C58.824,14.472 59.832,13.176 60.318,12.492 L60.264,12.348 Z M65.592,12.798 C66.726,13.842 68.112,15.462 68.76,16.866 C71.19,18.108 72.414,13.464 65.736,12.672 L65.592,12.798 Z M67.716,11.592 L65.88,11.592 C66.438,10.296 66.78,8.748 66.996,6.93 C67.5,6.912 67.626,6.786 67.68,6.588 L64.296,6.138 C64.314,8.262 64.098,10.062 63.576,11.592 L59.004,11.592 L59.148,12.096 L63.378,12.096 C62.46,14.382 60.75,16.002 57.96,17.028 L58.032,17.208 C62.082,16.308 64.368,14.742 65.646,12.096 L70.668,12.096 C70.938,12.096 71.136,12.006 71.172,11.808 C70.344,11.07 68.94,9.99 68.94,9.99 L67.716,11.592 Z M59.742,9.054 C60.372,9.504 61.056,10.386 61.254,11.196 C63.234,12.204 64.458,8.46 59.868,8.928 L59.742,9.054 Z M60.48,6.624 C61.128,7.056 61.812,7.902 62.046,8.676 C64.026,9.63 65.16,5.868 60.606,6.498 L60.48,6.624 Z M69.426,4.212 L68.238,5.4 L65.772,5.4 L65.772,3.132 L69.678,3.132 C69.93,3.132 70.128,3.042 70.182,2.844 C69.372,2.124 68.022,1.08 68.022,1.08 L66.834,2.628 L65.772,2.628 L65.772,0.756 C66.204,0.684 66.312,0.522 66.348,0.306 L63.36,0.054 L63.36,2.628 L60.066,2.628 L60.21,3.132 L63.36,3.132 L63.36,5.4 L59.328,5.4 L59.472,5.904 L68.4,5.904 C68.31,6.75 68.148,7.884 67.986,8.658 L68.13,8.766 C69.03,8.172 70.146,7.146 70.794,6.39 C71.172,6.372 71.352,6.318 71.496,6.156 L69.426,4.212 Z" id="读"></path>
                </g>
            </g>
        </g>
    </g>
</svg>