<svg width="109px" height="18px" viewBox="0 0 109 18" version="1.1" xmlns="http://www.w3.org/2000/svg" xmlns:xlink="http://www.w3.org/1999/xlink">
    <title>续费会员成功</title>
    <g id="页面-1" stroke="none" stroke-width="1" fill="none" fill-rule="evenodd">
        <g id="我的-开通成功" transform="translate(-150.000000, -101.000000)" fill="#FEDAA6" fill-rule="nonzero">
            <g id="续费会员成功" transform="translate(150.770000, 101.484000)">
                <path d="M6.318,12.744 C3.816,13.194 1.152,13.572 0.09,13.68 L1.026,16.704 C1.278,16.65 1.494,16.452 1.584,16.218 C3.852,14.814 5.4,13.68 6.354,12.906 L6.318,12.744 Z M11.952,13.086 C13.068,14.04 14.436,15.552 15.102,16.92 C17.73,18.126 18.954,13.14 12.078,12.978 L11.952,13.086 Z M13.896,11.754 L12.33,11.754 C12.852,10.512 13.194,9.018 13.41,7.272 C13.914,7.272 14.04,7.146 14.094,6.948 L10.71,6.498 C10.728,8.55 10.512,10.296 10.008,11.754 L5.526,11.754 L5.67,12.258 L9.828,12.258 C8.892,14.508 7.182,16.074 4.374,17.064 L4.446,17.244 C8.514,16.398 10.8,14.868 12.096,12.258 L16.812,12.258 C17.082,12.258 17.28,12.168 17.316,11.97 C16.506,11.232 15.12,10.17 15.12,10.17 L13.896,11.754 Z M6.408,9.27 C7.038,9.72 7.722,10.602 7.92,11.394 C9.846,12.402 11.052,8.748 6.534,9.144 L6.408,9.27 Z M7.146,6.948 C7.776,7.38 8.478,8.226 8.694,9 C10.638,9.936 11.754,6.246 7.272,6.822 L7.146,6.948 Z M15.372,4.266 L14.184,5.454 L12.168,5.454 L12.168,3.294 L16.056,3.294 C16.326,3.294 16.524,3.204 16.56,3.006 C15.75,2.286 14.4,1.224 14.4,1.224 L13.212,2.79 L12.168,2.79 L12.168,0.864 C12.6,0.774 12.726,0.612 12.744,0.396 L9.684,0.144 L9.684,2.79 L6.768,2.79 L6.912,3.294 L9.684,3.294 L9.684,5.454 L6.498,5.454 C6.588,5.346 6.678,5.22 6.75,5.112 C7.11,5.166 7.344,5.04 7.434,4.878 L4.68,3.348 C4.482,3.942 4.158,4.68 3.744,5.436 C2.934,5.454 2.196,5.472 1.566,5.472 C2.826,4.446 4.266,2.844 5.112,1.548 C5.472,1.53 5.652,1.386 5.706,1.206 L2.664,0.18 C2.43,1.656 1.386,4.374 0.63,5.202 C0.45,5.328 0.018,5.436 0.018,5.436 L1.08,7.974 C1.206,7.92 1.332,7.83 1.44,7.704 C1.908,7.47 2.376,7.236 2.79,7.02 C2.106,8.082 1.332,9.036 0.72,9.504 C0.504,9.648 0,9.756 0,9.756 L1.08,12.348 C1.206,12.294 1.314,12.222 1.422,12.114 C3.492,11.16 5.184,10.17 6.048,9.612 L6.03,9.414 C4.5,9.576 2.952,9.684 1.782,9.756 C3.402,8.658 5.256,6.948 6.39,5.58 L6.498,5.958 L14.346,5.958 C14.256,6.804 14.094,7.938 13.932,8.712 L14.076,8.82 C14.976,8.226 16.092,7.2 16.74,6.444 C17.118,6.426 17.298,6.372 17.442,6.21 L15.372,4.266 Z" id="形状"></path>
                <path d="M30.348,7.344 C30.798,7.47 31.032,7.596 31.23,7.848 C31.428,8.118 31.464,8.352 31.464,8.874 L30.456,8.118 L29.34,9.36 L23.958,9.36 L22.5,8.802 C23.796,8.19 24.678,7.434 25.272,6.624 L27.432,6.624 L27.432,8.91 L27.864,8.91 C28.818,8.91 29.898,8.496 29.898,8.334 L29.898,6.624 L32.004,6.624 C31.968,6.876 31.914,7.038 31.842,7.092 C31.77,7.146 31.68,7.182 31.464,7.182 C31.212,7.182 30.654,7.146 30.348,7.128 L30.348,7.344 Z M22.23,6.12 C22.32,5.652 22.41,5.076 22.482,4.608 L23.796,4.608 C23.706,5.112 23.544,5.634 23.31,6.12 L22.23,6.12 Z M26.388,2.574 L27.432,2.574 L27.432,4.104 L26.28,4.104 C26.352,3.672 26.388,3.24 26.388,2.808 L26.388,2.574 Z M31.176,2.574 L31.176,4.104 L29.898,4.104 L29.898,2.574 L31.176,2.574 Z M27.432,6.12 L25.596,6.12 C25.866,5.634 26.064,5.13 26.172,4.608 L27.432,4.608 L27.432,6.12 Z M32.94,5.184 L31.914,6.12 L29.898,6.12 L29.898,4.608 L31.176,4.608 L31.176,5.418 L31.608,5.418 C32.382,5.418 33.552,4.968 33.57,4.824 L33.57,2.916 C33.894,2.844 34.11,2.7 34.2,2.574 L32.04,0.972 L30.996,2.07 L29.898,2.07 L29.898,0.882 C30.384,0.81 30.528,0.63 30.564,0.378 L27.432,0.108 L27.432,2.07 L26.388,2.07 L26.388,0.864 C26.82,0.81 26.946,0.63 26.982,0.396 L23.958,0.108 L23.958,2.07 L19.332,2.07 L19.494,2.574 L23.958,2.574 L23.958,2.79 C23.958,3.222 23.94,3.672 23.886,4.104 L22.986,4.104 L20.358,3.564 C20.322,4.158 20.178,5.256 20.034,5.994 C19.818,6.12 19.62,6.264 19.458,6.408 L21.51,7.542 L22.248,6.624 L23.022,6.624 C22.266,7.812 20.934,8.91 18.612,9.774 L18.702,9.954 C19.674,9.774 20.52,9.54 21.258,9.288 L21.258,15.138 L21.618,15.138 C22.68,15.138 23.814,14.58 23.814,14.346 L23.814,9.864 L29.52,9.864 L29.52,13.914 C28.89,13.86 28.188,13.806 27.414,13.788 C27.81,13.032 27.954,12.186 28.08,11.214 C28.512,11.214 28.71,11.052 28.764,10.818 L25.488,10.206 C25.398,13.59 25.128,15.462 18.648,16.974 L18.738,17.244 C23.922,16.686 26.1,15.714 27.108,14.31 C29.412,15.048 30.978,16.056 31.86,16.776 C33.84,18.162 37.098,15.138 30.924,14.094 C31.554,13.968 32.112,13.77 32.13,13.68 L32.13,10.278 C32.508,10.206 32.724,10.026 32.832,9.882 L31.518,8.91 C32.328,8.91 32.868,8.874 33.318,8.622 C33.894,8.316 34.056,7.848 34.164,6.948 C34.488,6.894 34.686,6.804 34.812,6.66 L32.94,5.184 Z" id="形状"></path>
                <path d="M48.906,9.684 L37.08,9.684 L37.224,10.188 L42.912,10.188 C42.084,11.52 40.176,13.518 38.826,14.058 C38.574,14.184 38.052,14.274 38.052,14.274 L39.114,17.172 C39.33,17.082 39.51,16.938 39.69,16.704 C43.488,16.056 46.602,15.426 48.78,14.904 C49.176,15.552 49.536,16.218 49.788,16.848 C52.416,18.432 53.982,13.266 46.566,11.682 L46.404,11.79 C47.052,12.528 47.79,13.428 48.42,14.364 C45.342,14.4 42.408,14.4 40.41,14.382 C42.282,13.716 44.37,12.636 45.522,11.772 C45.882,11.826 46.098,11.718 46.188,11.538 L43.758,10.188 L52.236,10.188 C52.506,10.188 52.704,10.098 52.758,9.9 C51.822,9.108 50.274,7.956 50.274,7.956 L48.906,9.684 Z M45.882,6.696 L40.284,6.696 L40.428,7.2 L48.708,7.2 C48.978,7.2 49.176,7.11 49.212,6.912 C48.402,6.21 47.07,5.238 47.07,5.238 L45.882,6.696 Z M43.128,0 C42.408,2.556 39.168,6.354 36.108,8.352 L36.216,8.55 C39.816,7.182 43.704,4.356 45.486,1.548 C46.53,4.482 48.87,6.48 51.48,7.848 C51.642,6.912 52.326,5.814 53.37,5.508 L53.388,5.22 C50.778,4.59 47.412,3.492 45.774,1.332 C46.386,1.278 46.638,1.152 46.71,0.9 L43.128,0 Z" id="形状"></path>
                <path d="M65.952,1.8 L65.952,4.356 L59.868,4.356 L59.868,1.8 L65.952,1.8 Z M59.868,4.86 L65.952,4.86 L65.952,5.688 L66.402,5.688 C67.248,5.688 68.49,5.202 68.508,5.058 L68.508,2.16 C68.832,2.088 69.048,1.926 69.138,1.8 L66.87,0.126 L65.772,1.296 L59.994,1.296 L57.312,0.288 L57.312,5.904 L57.672,5.904 C58.698,5.904 59.868,5.364 59.868,5.148 L59.868,4.86 Z M67.23,13.5 C68.058,13.5 69.318,13.068 69.336,12.924 L69.336,7.686 C69.66,7.632 69.858,7.47 69.966,7.344 L67.716,5.652 L66.6,6.84 L59.004,6.84 L56.232,5.778 L56.232,14.22 L56.61,14.22 C57.69,14.22 58.842,13.644 58.842,13.392 L58.842,7.344 L66.78,7.344 L66.78,13.464 C65.898,13.266 64.836,13.122 63.558,13.014 C64.026,11.826 64.062,10.404 64.116,8.73 C64.512,8.676 64.692,8.514 64.728,8.244 L61.326,7.974 C61.308,12.51 61.65,15.084 54.882,16.974 L54.972,17.19 C60.174,16.434 62.37,15.228 63.324,13.482 C65.556,14.526 66.96,15.84 67.716,16.722 C69.732,18.468 73.44,14.994 66.924,13.5 L67.23,13.5 Z" id="形状"></path>
                <path d="M78.21,7.686 C78.138,10.494 78.012,11.718 77.724,11.988 C77.616,12.078 77.49,12.114 77.256,12.114 C76.968,12.114 76.338,12.096 75.978,12.06 C76.374,10.548 76.428,9.018 76.428,7.722 L76.428,7.686 L78.21,7.686 Z M89.118,11.088 L88.956,11.034 C88.56,11.844 87.966,12.87 87.642,13.338 C87.426,13.644 87.282,13.644 87.03,13.374 C86.454,12.87 85.968,12.312 85.554,11.682 C86.616,10.242 87.408,8.712 88.002,7.2 C88.47,7.218 88.632,7.074 88.704,6.858 L85.41,5.742 C85.158,6.84 84.816,7.992 84.348,9.108 C83.862,7.65 83.628,6.03 83.52,4.374 L88.704,4.374 C88.974,4.374 89.172,4.284 89.226,4.086 C88.686,3.618 87.93,3.042 87.408,2.628 C88.02,1.8 87.48,0.234 84.276,0.612 L84.15,0.72 C84.762,1.224 85.464,2.124 85.716,2.952 C85.842,3.024 85.968,3.06 86.094,3.096 L85.482,3.87 L83.502,3.87 C83.448,2.898 83.448,1.926 83.466,0.972 C83.934,0.9 84.096,0.684 84.114,0.45 L80.892,0.144 C80.892,1.404 80.928,2.646 81,3.87 L76.806,3.87 L73.818,2.862 L73.818,7.722 C73.818,10.782 73.692,14.382 72,17.19 L72.126,17.316 C74.34,15.948 75.42,14.076 75.942,12.186 L75.942,12.276 C76.5,12.438 76.806,12.654 77.022,12.978 C77.238,13.302 77.274,13.86 77.274,14.562 C78.228,14.562 78.894,14.364 79.434,13.968 C80.298,13.32 80.514,12.078 80.622,8.082 C80.982,8.028 81.198,7.902 81.324,7.758 L79.254,6.03 L78.048,7.182 L76.428,7.182 L76.428,4.374 L81.036,4.374 C81.252,7.146 81.738,9.738 82.818,12.042 C81.63,13.878 80.028,15.57 77.958,16.83 L78.084,17.028 C80.424,16.236 82.278,15.066 83.736,13.698 C84.222,14.454 84.78,15.156 85.446,15.804 C86.274,16.614 88.02,17.532 89.064,16.614 C89.442,16.29 89.334,15.588 88.632,14.31 L89.118,11.088 Z" id="形状"></path>
                <path d="M98.478,9.198 C97.452,9.522 96.426,9.828 95.454,10.116 L95.454,3.366 L98.136,3.366 C98.388,3.366 98.586,3.276 98.64,3.078 C97.848,2.322 96.498,1.206 96.498,1.206 L95.292,2.862 L90.54,2.862 L90.684,3.366 L92.898,3.366 L92.898,10.854 C91.71,11.178 90.738,11.43 90.144,11.574 L91.602,14.31 C91.818,14.22 91.998,14.022 92.07,13.788 C95.202,11.898 97.254,10.422 98.532,9.378 L98.478,9.198 Z M105.102,3.564 L103.752,4.896 L101.808,4.896 C101.88,3.618 101.88,2.304 101.916,0.918 C102.348,0.864 102.528,0.684 102.582,0.414 L99.288,0.108 C99.288,1.782 99.306,3.384 99.27,4.896 L96.732,4.896 L96.894,5.4 L99.252,5.4 C99.036,9.954 98.064,13.752 93.6,16.992 L93.78,17.226 C100.242,14.49 101.484,10.422 101.79,5.4 L103.95,5.4 C103.77,10.782 103.464,13.662 102.816,14.22 C102.636,14.382 102.456,14.436 102.15,14.436 C101.718,14.436 100.584,14.382 99.81,14.31 L99.81,14.526 C100.656,14.724 101.232,15.03 101.556,15.426 C101.844,15.768 101.952,16.362 101.934,17.172 C103.212,17.172 104.04,16.902 104.742,16.254 C105.876,15.21 106.236,12.6 106.47,5.85 C106.884,5.778 107.136,5.652 107.28,5.49 L105.102,3.564 Z" id="形状"></path>
            </g>
        </g>
    </g>
</svg>
