<svg width="18px" height="18px" viewBox="0 0 18 18" version="1.1" xmlns="http://www.w3.org/2000/svg" xmlns:xlink="http://www.w3.org/1999/xlink">
    <title>success</title>
    <g id="页面-1" stroke="none" stroke-width="1" fill="none" fill-rule="evenodd">
        <g id="微信安全支付" transform="translate(-135.000000, -380.000000)">
            <g id="success" transform="translate(135.000000, 380.000000)">
                <rect id="矩形" stroke="#12B968" x="2" y="2" width="14" height="14"></rect>
                <path d="M5.09608572,9.5597004 C4.98375169,9.45501026 4.96558764,9.29222592 5.06460518,9.17571795 L5.29612547,8.90330201 C5.39102496,8.79163952 5.56854517,8.76359428 5.69401777,8.84175771 L7.69789595,10.0900781 C7.80359895,10.155926 7.98551409,10.1473503 8.08420466,10.0726205 L13.3792911,6.06311461 C13.4983068,5.97299443 13.6847372,5.9806753 13.7890542,6.07789401 L13.9194849,6.19944937 C14.0329934,6.30523411 14.0247418,6.4731545 13.9057512,6.58404827 L8.2225646,11.8805163 C8.04574575,12.0453033 7.75543722,12.0380934 7.57341978,11.8684616 L5.09608572,9.5597004 Z" id="Fill-" fill="#12B968"></path>
            </g>
        </g>
    </g>
</svg>
