<svg width="24px" height="24px" viewBox="0 0 24 24" version="1.1" xmlns="http://www.w3.org/2000/svg" xmlns:xlink="http://www.w3.org/1999/xlink">
    <title>书城</title>
    <g id="页面-1" stroke="none" stroke-width="1" fill="none" fill-rule="evenodd">
        <g id="列表上拉" transform="translate(-61.000000, -733.000000)">
            <g id="编组-2" transform="translate(0.000000, 723.000000)" fill="currentColor" fill-rule="nonzero">
                <g id="编组-32" transform="translate(61.000000, 10.000000)">
                    <path d="M9.55783788,2 C9.87356668,2 10.18481,2.07474922 10.4661036,2.21813203 L11.0927563,2.53755365 C11.6627698,2.82810475 12.3373866,2.82841194 12.9076645,2.53838006 L13.5389801,2.21730561 C13.8198554,2.07445811 14.1305095,2 14.4456227,2 L20,2 C21.1045695,2 22,2.8954305 22,4 L22,19 C22,20.1045695 21.1045695,21 20,21 L14.4456227,21 C14.1305095,21 13.8198554,21.0744581 13.5389801,21.2173056 L12.8957851,21.5444217 C12.3321721,21.8310639 11.6662046,21.8342944 11.0998373,21.5531336 L10.4058003,21.2085938 C10.1294248,21.0713931 9.8250521,21 9.5164951,21 L4,21 C2.8954305,21 2,20.1045695 2,19 L2,4 C2,2.8954305 2.8954305,2 4,2 L9.55783788,2 Z M9.55783788,3.6 L4,3.6 C3.80670034,3.6 3.64542508,3.7371128 3.60812658,3.91938605 L3.6,4 L3.6,19 C3.6,19.1932997 3.7371128,19.3545749 3.91938605,19.3918734 L4,19.4 L9.5164951,19.4 C9.99255446,19.4 10.4630803,19.4944137 10.9010801,19.6769098 L11.1172444,19.7754688 L11.8112815,20.1200086 C11.9019002,20.1649943 12.0052678,20.173578 12.1007041,20.1458598 L12.170471,20.1182662 L12.8136661,19.7911501 C13.2470165,19.5707568 13.7197479,19.440805 14.2031597,19.4081737 L14.4456227,19.4 L20,19.4 C20.1932997,19.4 20.3545749,19.2628872 20.3918734,19.080614 L20.4,19 L20.4,4 C20.4,3.80670034 20.2628872,3.64542508 20.080614,3.60812658 L20,3.6 L14.4456227,3.6 C14.4036076,3.6 14.3619889,3.6066185 14.3222669,3.61949587 L14.2642942,3.64346112 L13.6329786,3.96453557 C12.6749117,4.45178912 11.5532414,4.48379102 10.5737476,4.06068052 L10.3661437,3.96304802 L9.73949101,3.64362641 C9.70198521,3.6245087 9.6618172,3.61149175 9.62049598,3.60493798 L9.55783788,3.6 Z" id="矩形" fill="currentColor" fill-rule="nonzero"></path>
                    <path d="M11.1569607,7.30754985 C11.5987885,7.30754985 11.9569607,7.66572205 11.9569607,8.10754985 C11.9569607,8.5153909 11.6517726,8.85195143 11.257311,8.90131672 L11.1569607,8.90754985 L7.1569607,8.90754985 C6.7151329,8.90754985 6.3569607,8.54937765 6.3569607,8.10754985 C6.3569607,7.6997088 6.66214885,7.36314827 7.0566104,7.31378299 L7.1569607,7.30754985 L11.1569607,7.30754985 Z" id="路径-11" fill="currentColor" fill-rule="nonzero"></path>
                    <path d="M10.1569607,11.3075499 C10.5987885,11.3075499 10.9569607,11.6657221 10.9569607,12.1075499 C10.9569607,12.5153909 10.6517726,12.8519514 10.257311,12.9013167 L10.1569607,12.9075499 L7.1569607,12.9075499 C6.7151329,12.9075499 6.3569607,12.5493777 6.3569607,12.1075499 C6.3569607,11.6997088 6.66214885,11.3631483 7.0566104,11.313783 L7.1569607,11.3075499 L10.1569607,11.3075499 Z" id="路径-11备份" fill="currentColor" fill-rule="nonzero"></path>
                </g>
            </g>
        </g>
    </g>
</svg>