<svg width="20px" height="20px" viewBox="0 0 20 20" version="1.1" xmlns="http://www.w3.org/2000/svg" xmlns:xlink="http://www.w3.org/1999/xlink">
    <title>close</title>
    <g id="页面-1" stroke="none" stroke-width="1" fill="none" fill-rule="evenodd">
        <g id="详情页-关注2" transform="translate(-339.000000, -508.000000)" fill-rule="nonzero">
            <g id="编组-5" transform="translate(0.000000, 492.000000)">
                <g id="close" transform="translate(339.000000, 16.000000)">
                    <rect id="矩形" fill="#000000" opacity="0" x="0" y="0" width="20" height="20"></rect>
                    <path d="M11.0117187,10 L16.1386719,3.88867188 C16.2246094,3.78710938 16.1523437,3.6328125 16.0195312,3.6328125 L14.4609375,3.6328125 C14.3691406,3.6328125 14.28125,3.67382813 14.2207031,3.74414063 L9.9921875,8.78515625 L5.76367188,3.74414062 C5.70507812,3.67382812 5.6171875,3.6328125 5.5234375,3.6328125 L3.96484375,3.6328125 C3.83203125,3.6328125 3.75976562,3.78710938 3.84570312,3.88867188 L8.97265625,10 L3.84570312,16.1113281 C3.75976562,16.2128906 3.83203125,16.3671875 3.96484375,16.3671875 L5.5234375,16.3671875 C5.61523437,16.3671875 5.703125,16.3261719 5.76367188,16.2558594 L9.9921875,11.2148437 L14.2207031,16.2558594 C14.2792969,16.3261719 14.3671875,16.3671875 14.4609375,16.3671875 L16.0195312,16.3671875 C16.1523437,16.3671875 16.2246094,16.2128906 16.1386719,16.1113281 L11.0117187,10 Z" id="路径" fill="currentColor"></path>
                </g>
            </g>
        </g>
    </g>
</svg>