<?xml version="1.0" encoding="UTF-8"?>
<svg width="20px" height="20px" viewBox="0 0 20 20" version="1.1" xmlns="http://www.w3.org/2000/svg" xmlns:xlink="http://www.w3.org/1999/xlink">
    <title>编组 3</title>
    <g id="页面-1" stroke="none" stroke-width="1" fill="none" fill-rule="evenodd">
        <g id="详情页-弹窗充值-优惠券满赠" transform="translate(-28.000000, -459.000000)">
            <g id="编组-5" transform="translate(0.000000, 343.000000)">
                <g id="编组-7" transform="translate(20.000000, 102.000000)">
                    <g id="编组-3" transform="translate(8.000000, 14.000000)">
                        <rect id="矩形" stroke="#979797" stroke-width="0.833333333" fill="#D8D8D8" opacity="0" x="0.416666667" y="0.416666667" width="19.1666667" height="19.1666667"></rect>
                        <g id="优惠券-(1)" transform="translate(0.833333, 2.500000)" fill-rule="nonzero">
                            <path d="M16.5974031,7.49947075 C16.5974031,6.70136194 17.1238464,6.0207466 17.8646433,5.75506316 C18.1511884,5.65238868 18.3322227,5.38141274 18.3322227,5.09032531 L18.3322227,2.65577588 C18.3322227,1.18975372 17.0849741,0 15.5456271,0 L2.78548495,0 C1.24724864,0 0,1.18869522 0,2.65471738 L0,5.07550632 C0,5.37082775 0.186587508,5.64392068 0.47757517,5.74236116 C1.23614224,5.9995766 1.77924517,6.68865994 1.77924517,7.49947075 C1.77924517,8.31028156 1.23614224,8.9993649 0.47757517,9.25658034 C0.185476868,9.35502082 0,9.62917225 0,9.92343518 L0,12.3442241 C0,13.8102463 1.24724864,15 2.78659559,15 L15.5467377,15 C17.0849741,15 18.3333333,13.8113048 18.3333333,12.3442241 L18.3333333,9.90967469 C18.3333333,9.61858726 18.152299,9.34761132 17.8657539,9.24493684 C17.1249571,8.97819491 16.5974031,8.29757956 16.5974031,7.49947075 Z" id="路径" fill="#FA414A"></path>
                            <path d="M3.98164415,4.82358337 C3.98164415,5.48991107 4.35463622,6.10562325 4.96011791,6.43878711 C5.5655996,6.77195096 6.31158381,6.77195096 6.9170655,6.43878711 C7.52254719,6.10562325 7.89553927,5.48991107 7.89553927,4.82358337 C7.89553927,4.15725569 7.52254719,3.5415435 6.9170655,3.20837966 C6.31158381,2.87521581 5.56559961,2.87521581 4.96011792,3.20837966 C4.35463623,3.5415435 3.98164415,4.15725569 3.98164415,4.82358337 Z" id="路径" fill="#FFFFFF"></path>
                            <path d="M10.3445003,10.1742996 C10.3445003,11.204353 11.2206556,12.0393762 12.3014479,12.0393762 C13.3822402,12.0393762 14.2583954,11.204353 14.2583954,10.1742996 C14.2583954,9.14424628 13.3822402,8.30922306 12.3014479,8.30922306 C11.2206556,8.30922306 10.3445003,9.14424628 10.3445003,10.1742996 Z" id="路径" fill="#FFFFFF"></path>
                            <path d="M5.87972779,11.4519089 C5.61650613,11.4519089 5.35328447,11.3534684 5.1567012,11.1576459 C4.97325302,10.9752115 4.87354219,10.7306886 4.87958531,10.4780688 C4.88562842,10.2254491 4.99692841,9.98551107 5.18890976,9.81123421 L11.6117405,3.95878908 C12.0104602,3.59572366 12.643525,3.60842566 13.0244745,3.98948557 C13.2079226,4.17191992 13.3076335,4.41644285 13.3015904,4.66906263 C13.2955472,4.9216824 13.1842473,5.1616204 12.9922659,5.33589725 L6.56943519,11.1883424 C6.38373856,11.3575897 6.13667013,11.452005 5.87972779,11.4519089 L5.87972779,11.4519089 Z" id="路径" fill="#FFFFFF"></path>
                        </g>
                    </g>
                </g>
            </g>
        </g>
    </g>
</svg>