<svg width="40px" height="20px" viewBox="0 0 40 20" version="1.1" xmlns="http://www.w3.org/2000/svg" xmlns:xlink="http://www.w3.org/1999/xlink">
    <title>女生</title>
    <g id="页面-1" stroke="none" stroke-width="1" fill="none" fill-rule="evenodd">
        <g id="书城-新用户" transform="translate(-208.000000, -123.000000)" fill="#FFFFFF" fill-rule="nonzero">
            <g id="女生备份" transform="translate(208.520000, 123.960000)">
                <path d="M12.52,5.94 C11.98,8.7 11.16,10.94 9.86,12.74 C8.52,12.36 7.02,11.96 5.24,11.58 C6.08,9.98 7.02,7.9 7.84,5.94 L12.52,5.94 Z M14.94,5.36 L8.08,5.36 C8.74,3.76 9.34,2.32 9.72,1.28 C10.34,1.32 10.52,1.1 10.58,0.88 L7.48,0 C7.14,1.18 6.4,3.22 5.52,5.36 L0.02,5.36 L0.18,5.94 L5.28,5.94 C4.4,8.08 3.44,10.2 2.72,11.54 C4.62,12.14 6.74,13.02 8.76,14.04 C6.8,16.06 4,17.48 0,18.56 L0.1,18.84 C5.06,18.16 8.32,16.94 10.56,15.02 C12.46,16.12 14.18,17.32 15.38,18.5 C17.4,19.38 19.84,16.4 12.04,13.46 C13.56,11.54 14.5,9.06 15.26,5.94 L18.32,5.94 C18.62,5.94 18.86,5.84 18.9,5.62 C17.94,4.76 16.36,3.52 16.36,3.52 L14.94,5.36 Z" id="形状"></path>
                <path d="M34.82,17.24 L30.7,17.24 L30.7,11.24 L36.62,11.24 C36.9,11.24 37.1,11.14 37.16,10.92 C36.2,10.1 34.6,8.92 34.6,8.92 L33.2,10.66 L30.7,10.66 L30.7,5.54 L37.16,5.54 C37.48,5.54 37.7,5.44 37.76,5.22 C36.78,4.4 35.24,3.28 35.24,3.28 L33.86,4.98 L30.7,4.98 L30.7,1.04 C31.24,0.96 31.38,0.76 31.44,0.46 L28.12,0.14 L28.12,4.98 L24.9,4.98 C25.4,4.12 25.82,3.18 26.22,2.16 C26.68,2.16 26.94,1.98 27,1.74 L23.64,0.74 C22.94,4.36 21.46,7.98 19.92,10.26 L20.14,10.44 C21.86,9.24 23.34,7.6 24.58,5.54 L28.12,5.54 L28.12,10.66 L22.46,10.66 L22.62,11.24 L28.12,11.24 L28.12,17.24 L20.1,17.24 L20.26,17.82 L38.3,17.82 C38.6,17.82 38.82,17.72 38.88,17.5 C37.88,16.66 36.26,15.42 36.26,15.42 L34.82,17.24 Z" id="路径"></path>
            </g>
        </g>
    </g>
</svg>