<svg width="112px" height="15px" viewBox="0 0 112 15" version="1.1" xmlns="http://www.w3.org/2000/svg" xmlns:xlink="http://www.w3.org/1999/xlink">
    <title>全场所有书免费看</title>
    <g id="页面-1" stroke="none" stroke-width="1" fill="none" fill-rule="evenodd">
        <g id="详情页-充值" transform="translate(-42.000000, -482.000000)" fill="#000000" fill-rule="nonzero">
            <g id="编组-3" transform="translate(20.000000, 214.000000)">
                <g id="编组-2" transform="translate(0.000000, 222.000000)">
                    <path d="M22.308,53.988 C25.15,52.896 28.272,50.642 29.7,48.36 C30.47,50.782 32.262,52.322 34.236,53.414 C34.376,52.602 34.95,51.622 35.86,51.356 L35.874,51.132 C33.914,50.698 31.198,49.928 29.91,48.192 C30.428,48.136 30.624,48.052 30.68,47.842 L27.628,47.044 C27.11,49.102 24.618,52.182 22.224,53.848 L22.308,53.988 Z M35.104,59.826 C35.3,59.826 35.468,59.756 35.51,59.602 C34.796,58.986 33.606,58.076 33.606,58.076 L32.556,59.434 L30.036,59.434 L30.036,56.368 L33.816,56.368 C34.026,56.368 34.18,56.298 34.222,56.144 C34.0746316,56.0202105 33.9080277,55.8852521 33.7368191,55.7493139 L33.4783814,55.5459455 C32.9188753,55.109241 32.388,54.716 32.388,54.716 L31.38,55.976 L30.036,55.976 L30.036,53.33 L32.794,53.33 C32.99,53.33 33.144,53.26 33.186,53.106 C32.542,52.546 31.464,51.748 31.464,51.748 L30.526,52.938 L24.926,52.938 L25.038,53.33 L27.894,53.33 L27.894,55.976 L24.408,55.976 L24.52,56.368 L27.894,56.368 L27.894,59.434 L22.896,59.434 L23.008,59.826 L35.104,59.826 Z M37.274,58.16 C37.442,58.104 37.596,57.95 37.666,57.768 C39.654,56.522 40.956,55.556 41.754,54.884 L41.726,54.758 C41.11,54.898 40.494,55.038 39.892,55.178 L39.892,51.37 L41.796,51.37 C41.992,51.37 42.132,51.3 42.174,51.146 C41.74,50.558 40.872,49.606 40.872,49.606 L40.116,50.978 L39.892,50.978 L39.892,47.842 C40.284,47.786 40.382,47.632 40.41,47.436 L37.932,47.226 L37.932,50.978 L36.294,50.978 L36.406,51.37 L37.932,51.37 L37.932,55.584 C37.204,55.724 36.602,55.85 36.224,55.906 L37.274,58.16 Z M46.024,60.302 C46.864,60.302 47.452,60.134 47.942,59.714 C48.74,59.056 49.034,57.46 49.202,53.316 C49.51,53.26 49.692,53.162 49.79,53.036 L48.194,51.664 L47.242,52.602 L43.714,52.602 C45.016,51.594 47.004,49.942 47.914,49.088 C48.334,49.046 48.698,48.962 48.838,48.78 L46.948,47.24 L46.094,48.192 L41.348,48.192 L41.474,48.584 L45.884,48.584 C44.904,49.536 43.154,50.95 41.894,51.902 C41.544,51.958 41.18,52.084 40.956,52.196 L42.482,53.596 L43.308,52.994 L43.504,52.994 C42.888,54.912 41.698,56.704 39.934,57.922 L40.06,58.09 C42.678,56.956 44.442,55.262 45.324,52.994 L45.422,52.994 C44.778,56.046 43.084,58.468 39.962,59.952 L40.074,60.12 C44.302,58.804 46.43,56.396 47.298,52.994 L47.382,52.994 C47.256,56.228 47.032,57.88 46.612,58.23 C46.486,58.328 46.374,58.37 46.15,58.37 C45.856,58.37 45.114,58.328 44.624,58.3 L44.61,58.468 C45.17,58.594 45.562,58.804 45.772,59.07 C45.968,59.322 46.024,59.742 46.024,60.302 Z M54.984,60.316 C58.778,58.314 59.1,54.898 59.1,52.238 L60.248,52.238 L60.248,60.162 L60.626,60.162 C61.676,60.162 62.278,59.742 62.278,59.63 L62.278,52.238 L63.37,52.238 C63.566,52.238 63.72,52.168 63.762,52.014 C63.16,51.44 62.124,50.586 62.124,50.586 L61.214,51.846 L59.1,51.846 L59.1,49.214 C60.416,49.088 61.746,48.906 62.642,48.724 C63.118,48.892 63.468,48.878 63.65,48.724 L61.634,46.904 C61.046,47.366 60.01,48.024 59.016,48.57 L57.14,47.982 L57.14,52.14 C57.14,54.856 56.902,57.81 54.858,60.162 L54.984,60.316 Z M50.392,60.358 C52.296,58.846 52.87,56.76 53.038,54.8 L54.55,54.8 L54.55,55.71 L54.872,55.71 C55.474,55.71 56.412,55.388 56.426,55.29 L56.426,51.454 C56.72,51.398 56.902,51.258 56.986,51.146 L55.25,49.83 L54.41,50.754 L53.108,50.754 L53.108,49.144 C54.214,49.018 55.334,48.836 56.09,48.654 C56.552,48.808 56.874,48.794 57.056,48.64 L55.11,46.96 C54.592,47.422 53.668,48.066 52.772,48.612 L51.218,48.122 L51.218,52.616 C51.218,55.108 51.204,57.978 50.252,60.218 L50.392,60.358 Z M54.55,54.408 L53.066,54.408 C53.108,53.806 53.108,53.232 53.108,52.686 L53.108,51.146 L54.55,51.146 L54.55,54.408 Z M67.738,60.288 C68.774,60.288 69.39,59.84 69.39,59.714 L69.39,56.564 L73.478,56.564 L73.478,57.796 C73.478,57.978 73.422,58.076 73.198,58.076 C73.07725,58.076 72.7891562,58.0641875 72.476207,58.0494219 L72.16025,58.034 C71.742,58.013 71.364,57.992 71.364,57.992 L71.364,58.16 C72.12,58.3 72.414,58.524 72.652,58.832 C72.89,59.14 72.96,59.616 73.016,60.288 C75.228,60.092 75.536,59.35 75.536,58.034 L75.536,52.574 C75.858,52.518 76.054,52.378 76.152,52.238 L74.248,50.768 L73.324,51.818 L69.586,51.818 L69.222,51.678 C69.698,51.076 70.118,50.46 70.482,49.83 L77.132,49.83 C77.342,49.83 77.51,49.76 77.538,49.606 C77.3868,49.4772 77.21488,49.3372 77.036576,49.195632 L76.766124,48.983308 C76.13226,48.49076 75.508,48.038 75.508,48.038 L74.388,49.438 L70.706,49.438 C70.944,48.99 71.168,48.528 71.35,48.094 C71.714,48.08 71.84,47.954 71.882,47.8 L69.208,46.988 C69.026,47.758 68.76,48.584 68.424,49.438 L64.546,49.438 L64.658,49.83 L68.256,49.83 C67.388,51.818 66.086,53.848 64.28,55.276 L64.392,55.402 C65.526,54.912 66.506,54.296 67.36,53.582 L67.36,60.288 L67.738,60.288 Z M73.478,53.988 L69.39,53.988 L69.39,52.21 L73.478,52.21 L73.478,53.988 Z M73.478,56.172 L69.39,56.172 L69.39,54.38 L73.478,54.38 L73.478,56.172 Z M83.572,60.288 C84.384,60.288 85.336,59.742 85.336,59.532 L85.336,54.128 L88.906,54.128 C88.822,56.018 88.682,57.082 88.416,57.306 C88.318,57.39 88.22,57.418 88.01,57.418 C87.73,57.418 86.806,57.376 86.232,57.334 L86.218,57.474 C86.862,57.614 87.324,57.852 87.59,58.146 C87.842,58.426 87.898,58.902 87.884,59.49 C88.864,59.49 89.424,59.322 89.886,58.986 C90.628,58.468 90.866,57.25 90.992,54.478 C91.286,54.436 91.44,54.338 91.552,54.212 L89.816,52.77 L88.822,53.694 L89.032,50.936 C89.326,50.88 89.438,50.824 89.55,50.698 L87.674,49.354 L86.918,50.25 L85.336,50.25 L85.336,47.674 C85.686,47.618 85.77,47.478 85.798,47.31 L83.152,47.058 L83.152,50.25 L79.708,50.25 L79.834,50.642 L83.152,50.642 L83.152,53.736 L78.7,53.736 L78.826,54.128 L83.152,54.128 L83.152,60.288 L83.572,60.288 Z M87.31,47.59 L87.226,47.674 C88.08,48.318 89.088,49.41 89.592,50.418 C91.72,51.314 92.616,47.296 87.31,47.59 Z M86.792,53.736 L85.336,53.736 L85.336,50.642 L87.03,50.642 L86.792,53.736 Z M92.504,60.33 C96.452,59.588 98.426,58.006 99.378,55.766 L99.378,58.37 C99.378,59.672 99.728,59.994 101.31,59.994 L102.654,59.994 C105.034,59.994 105.692,59.616 105.692,58.832 C105.692,58.44 105.58,58.216 105.076,58.006 L105.034,56.2 L104.894,56.2 C104.558,57.068 104.306,57.684 104.138,57.936 C104.026,58.076 103.942,58.118 103.746,58.132 C103.624667,58.1413333 103.434889,58.1444444 103.226444,58.1454815 L101.786,58.146 C101.436,58.146 101.366,58.076 101.366,57.88 L101.366,54.8 L101.828,54.8 L101.828,55.43 L102.178,55.43 C102.864,55.43 103.844,55.038 103.858,54.912 L103.858,51.776 C104.152,51.72 104.32,51.58 104.404,51.468 L102.57,50.096 L101.688,51.062 L99.35,51.062 C100.344,50.6 101.38,49.9 102.15,49.312 C102.458,49.284 102.598,49.242 102.724,49.116 L100.974,47.632 L99.966,48.64 L97.81,48.64 C97.95,48.444 98.09,48.234 98.216,48.038 C98.622,48.108 98.734,48.052 98.804,47.898 L96.256,46.946 C95.542,49.102 93.946,51.622 92.308,52.98 L92.406,53.078 C93.064,52.798 93.708,52.434 94.324,52.014 L94.324,55.78 L94.702,55.78 C95.724,55.78 96.326,55.248 96.326,55.094 L96.326,54.8 L97.656,54.8 C97.054,57.096 95.612,58.902 92.448,60.176 L92.504,60.33 Z M98.93,51.062 L96.522,51.062 L95.85,50.824 C96.466,50.25 97.04,49.648 97.516,49.032 L99.98,49.032 C99.714,49.648 99.308,50.502 98.93,51.062 Z M97.74,54.408 L96.326,54.408 L96.326,51.454 L98.034,51.454 C98.02,52.518 97.936,53.498 97.74,54.408 Z M101.828,54.408 L99.826,54.408 C100.036,53.498 100.148,52.518 100.19,51.454 L101.828,51.454 L101.828,54.408 Z M106.784,60.344 C110.816,59.91 112.51,59.154 113.294,58.062 C115.086,58.636 116.304,59.42 116.99,59.98 C118.53,61.058 121.064,58.706 116.262,57.894 C116.752,57.796 117.186,57.642 117.2,57.572 L117.2,54.926 C117.494,54.87 117.662,54.73 117.746,54.618 L116.724,53.862 C117.354,53.862 117.774,53.834 118.124,53.638 C118.572,53.4 118.698,53.036 118.782,52.336 C119.034,52.294 119.188,52.224 119.286,52.112 L117.83,50.964 L117.032,51.692 L115.464,51.692 L115.464,50.516 L116.458,50.516 L116.458,51.146 L116.794,51.146 C117.396,51.146 118.306,50.796 118.32,50.684 L118.32,49.2 C118.572,49.144 118.74,49.032 118.81,48.934 L117.13,47.688 L116.318,48.542 L115.464,48.542 L115.464,47.618 C115.842,47.562 115.954,47.422 115.982,47.226 L113.546,47.016 L113.546,48.542 L112.734,48.542 L112.734,47.604 C113.07,47.562 113.168,47.422 113.196,47.24 L110.844,47.016 L110.844,48.542 L107.246,48.542 L107.372,48.934 L110.844,48.934 L110.844,49.102 C110.844,49.438 110.83,49.788 110.788,50.124 L110.088,50.124 L108.044,49.704 C108.016,50.166 107.904,51.02 107.792,51.594 C107.624,51.692 107.47,51.804 107.344,51.916 L108.94,52.798 L109.514,52.084 L110.116,52.084 C109.528,53.008 108.492,53.862 106.686,54.534 L106.756,54.674 C107.512,54.534 108.17,54.352 108.744,54.156 L108.744,58.706 L109.024,58.706 C109.85,58.706 110.732,58.272 110.732,58.09 L110.732,54.604 L115.17,54.604 L115.17,57.754 C114.68,57.712 114.134,57.67 113.532,57.656 C113.84,57.068 113.952,56.41 114.05,55.654 C114.386,55.654 114.54,55.528 114.582,55.346 L112.034,54.87 C111.964,57.502 111.754,58.958 106.714,60.134 L106.784,60.344 Z M113.546,50.124 L112.65,50.124 C112.706,49.788 112.734,49.452 112.734,49.116 L112.734,48.934 L113.546,48.934 L113.546,50.124 Z M116.458,50.124 L115.464,50.124 L115.464,48.934 L116.458,48.934 L116.458,50.124 Z M110.34,51.692 L109.5,51.692 C109.57,51.328 109.64,50.88 109.696,50.516 L110.718,50.516 C110.648,50.908 110.522,51.314 110.34,51.692 Z M113.546,51.692 L112.118,51.692 C112.328,51.314 112.482,50.922 112.566,50.516 L113.546,50.516 L113.546,51.692 Z M115.03,54.212 L110.844,54.212 L109.71,53.778 C110.718,53.302 111.404,52.714 111.866,52.084 L113.546,52.084 L113.546,53.862 L113.882,53.862 C114.624,53.862 115.464,53.54 115.464,53.414 L115.464,52.084 L117.102,52.084 C117.074,52.28 117.032,52.406 116.976,52.448 C116.92,52.49 116.85,52.518 116.682,52.518 C116.486,52.518 116.052,52.49 115.814,52.476 L115.814,52.644 C116.164,52.742 116.346,52.84 116.5,53.036 C116.654,53.246 116.682,53.428 116.682,53.834 L115.898,53.246 L115.03,54.212 Z M124.144,60.344 C125.166,60.344 125.768,59.91 125.768,59.77 L125.768,59.266 L129.758,59.266 L129.758,60.288 L130.108,60.288 C130.78,60.288 131.774,59.91 131.788,59.798 L131.788,54.184 C132.04,54.128 132.194,54.016 132.278,53.918 L130.5,52.56 L129.618,53.512 L125.964,53.512 L125.348,53.288 C125.53,53.036 125.712,52.77 125.88,52.504 L133.216,52.504 C133.426,52.504 133.594,52.434 133.622,52.28 C133.474632,52.1562105 133.306787,52.0212521 133.133619,51.8853139 L132.871768,51.6819455 C132.303983,51.245241 131.76,50.852 131.76,50.852 L130.738,52.112 L126.104,52.112 C126.342,51.692 126.552,51.258 126.734,50.81 L132.334,50.81 C132.53,50.81 132.684,50.74 132.726,50.586 C132.04,50.012 130.92,49.214 130.92,49.214 L129.94,50.418 L126.888,50.418 C127.056,49.998 127.182,49.564 127.308,49.116 C128.862,49.018 130.304,48.878 131.466,48.724 C131.956,48.92 132.292,48.92 132.46,48.78 L130.752,47.03 C128.61,47.772 124.424,48.64 121.19,49.032 L121.218,49.242 C122.45,49.27 123.78,49.256 125.096,49.214 C124.998,49.62 124.9,50.026 124.774,50.418 L121.526,50.418 L121.638,50.81 L124.648,50.81 C124.494,51.244 124.326,51.692 124.144,52.112 L120.56,52.112 L120.672,52.504 L123.962,52.504 C123.108,54.254 121.904,55.836 120.35,56.998 L120.476,57.138 C121.75,56.55 122.842,55.836 123.766,55.01 L123.766,60.344 L124.144,60.344 Z M129.758,55.206 L125.768,55.206 L125.768,53.904 L129.758,53.904 L129.758,55.206 Z M129.758,57.012 L125.768,57.012 L125.768,55.598 L129.758,55.598 L129.758,57.012 Z M129.758,58.874 L125.768,58.874 L125.768,57.404 L129.758,57.404 L129.758,58.874 Z" id="全场所有书免费看"></path>
                </g>
            </g>
        </g>
    </g>
</svg>