<svg width="21px" height="20px" viewBox="0 0 21 20" version="1.1" xmlns="http://www.w3.org/2000/svg" xmlns:xlink="http://www.w3.org/1999/xlink">
    <title>编组 3</title>
    <g id="页面-1" stroke="none" stroke-width="1" fill="none" fill-rule="evenodd">
        <g id="我的" transform="translate(-32.000000, -280.000000)">
            <g id="编组-11" transform="translate(20.000000, 262.000000)">
                <g id="编组-3" transform="translate(12.006009, 18.000000)">
                    <circle id="椭圆形" fill="#FFDD79" cx="10" cy="10" r="10"></circle>
                    <circle id="椭圆形" fill="#FFC134" cx="10" cy="10" r="8"></circle>
                    <g id="币" transform="translate(5.683761, 5.000000)" fill="#A46508" fill-rule="nonzero">
                        <path d="M7.38247863,2.89529915 L6.81623932,3.54700855 L5.04273504,3.54700855 L5.04273504,1.57051282 C5.99358974,1.44230769 6.86965812,1.3034188 7.59615385,1.15384615 C7.94871795,1.29273504 8.19444444,1.28205128 8.30128205,1.17521368 L7.08333333,0 C5.52350427,0.641025641 2.4465812,1.44230769 0,1.82692308 L0.0320512821,1.98717949 C1.21794872,1.95512821 2.5,1.85897436 3.71794872,1.73076923 L3.71794872,3.54700855 L1.96581197,3.54700855 L0.608974359,3.01282051 L0.608974359,8.91025641 L0.811965812,8.91025641 C1.33547009,8.91025641 1.86965812,8.62179487 1.86965812,8.49358974 L1.86965812,3.84615385 L3.71794872,3.84615385 L3.71794872,10 L3.95299145,10 C4.60470085,10 5.03205128,9.72222222 5.04273504,9.62606838 L5.04273504,3.84615385 L6.92307692,3.84615385 L6.92307692,7.32905983 C6.92307692,7.45726496 6.86965812,7.53205128 6.70940171,7.53205128 C6.45299145,7.53205128 5.56623932,7.46794872 5.56623932,7.46794872 L5.56623932,7.60683761 C6.03632479,7.69230769 6.23931624,7.84188034 6.38888889,8.02350427 C6.53846154,8.21581197 6.58119658,8.5042735 6.61324786,8.91025641 C8.01282051,8.78205128 8.19444444,8.29059829 8.19444444,7.45726496 L8.19444444,4.05982906 C8.41880342,4.01709402 8.55769231,3.92094017 8.63247863,3.83547009 L7.38247863,2.89529915 Z" id="路径"></path>
                    </g>
                </g>
            </g>
        </g>
    </g>
</svg>