<svg width="72px" height="18px" viewBox="0 0 72 18" version="1.1" xmlns="http://www.w3.org/2000/svg" xmlns:xlink="http://www.w3.org/1999/xlink">
    <title>热门好书</title>
    <g id="页面-1" stroke="none" stroke-width="1" fill="none" fill-rule="evenodd">
        <g id="书城-新用户" transform="translate(-20.000000, -209.000000)" fill="currentColor" fill-rule="nonzero">
            <g id="编组-14" transform="translate(20.000000, 209.000000)">
                <g id="编组-3备份-3" transform="translate(0.000000, 0.538000)">
                    <path d="M2.808,12.6 C5.256,12.402 5.58,11.646 5.58,10.116 L5.58,6.804 C6.57,6.228 7.344,5.724 7.974,5.31 L7.92,5.094 C7.128,5.31 6.336,5.508 5.58,5.706 L5.58,3.87 L7.74,3.87 C7.992,3.87 8.172,3.78 8.226,3.582 L8.00710278,3.36244671 C7.35182825,2.71854848 6.444,1.926 6.444,1.926 L5.58,3.186 L5.58,0.81 C5.994,0.756 6.174,0.594 6.21,0.324 L3.186,0.054 L3.186,3.366 L0.864,3.366 L1.008,3.87 L3.186,3.87 L3.186,6.318 C1.98,6.606 0.99,6.84 0.396,6.948 L1.746,9.216 C1.944,9.144 2.106,8.982 2.178,8.73 C2.52,8.55 2.862,8.352 3.186,8.19 L3.186,10.08 C3.186,10.26 3.114,10.332 2.88,10.332 C2.592,10.332 1.296,10.242 1.296,10.242 L1.296,10.476 C2.034,10.602 2.304,10.854 2.502,11.124 C2.718,11.448 2.772,11.934 2.808,12.6 Z M17.64,11.07 C17.748,10.62 17.64,10.17 17.154,9.63 L17.172,7.506 L16.992,7.488 C16.848,8.136 16.704,8.658 16.524,9.09 C16.452,9.27 16.362,9.342 16.182,9.306 C15.156,9.108 15.12,6.084 15.3,3.978 C15.606,3.924 15.876,3.816 15.984,3.69 L13.824,2.07 L12.69,3.258 L11.934,3.258 C11.988,2.484 12.006,1.674 12.024,0.828 C12.438,0.774 12.618,0.612 12.654,0.342 L9.468,0.072 C9.468,1.188 9.468,2.25 9.45,3.258 L8.208,3.258 L8.37,3.762 L9.432,3.762 C9.396,4.698 9.306,5.562 9.144,6.39 C8.604,6.264 8.01,6.156 7.326,6.084 L7.182,6.21 C7.686,6.624 8.244,7.146 8.784,7.722 C8.262,9.27 7.308,10.638 5.598,11.88 L5.76,12.114 C7.812,11.304 9.18,10.35 10.098,9.234 C10.422,9.648 10.71,10.08 10.944,10.476 C12.834,11.304 13.878,8.82 11.232,7.236 C11.628,6.174 11.808,5.004 11.898,3.762 L12.906,3.762 C12.852,7.956 13.014,11.412 15.732,12.096 C16.704,12.294 17.406,11.97 17.64,11.07 Z M13.338,12.258 L13.194,12.348 C14.022,13.536 14.85,15.156 15.084,16.668 C17.496,18.504 19.602,13.716 13.338,12.258 Z M9.396,12.51 L9.234,12.6 C9.954,13.662 10.548,15.156 10.584,16.524 C12.78,18.432 15.102,13.95 9.396,12.51 Z M5.958,12.564 L5.778,12.636 C6.102,13.734 6.282,15.102 6.102,16.38 C7.92,18.468 10.674,14.724 5.958,12.564 Z M2.664,17.064 C3.798,16.596 4.662,15.012 3.852,12.69 L3.636,12.69 C3.528,13.662 2.538,14.382 1.71,14.616 C1.044,14.886 0.522,15.426 0.702,16.236 C0.936,17.082 1.872,17.388 2.664,17.064 Z M21.348,0 L21.222,0.108 C22.14,0.972 23.13,2.34 23.544,3.618 C26.082,5.04 27.702,0.198 21.348,0 Z M30.978,17.118 C33.93,16.866 34.344,15.912 34.344,14.22 L34.344,2.682 C34.704,2.592 34.92,2.43 35.046,2.286 L32.724,0.468 L31.572,1.764 L26.37,1.764 L26.532,2.268 L31.752,2.268 L31.752,13.932 C31.752,14.184 31.662,14.328 31.338,14.328 C30.87,14.328 28.476,14.202 28.476,14.202 L28.476,14.418 C29.592,14.634 30.042,14.904 30.42,15.3 C30.78,15.678 30.906,16.29 30.978,17.118 Z M20.124,17.136 C21.15,17.136 22.248,16.578 22.248,16.326 L22.248,3.204 C22.842,3.132 23.004,2.898 23.04,2.592 L19.674,2.286 L19.674,17.136 L20.124,17.136 Z M46.332,17.19 C49.032,16.956 49.41,16.038 49.41,14.328 L49.41,8.712 L53.334,8.712 C53.604,8.712 53.802,8.622 53.856,8.424 C53.028,7.632 51.588,6.462 51.588,6.462 L50.328,8.208 L49.41,8.208 L49.41,5.94 C49.824,5.886 50.004,5.724 50.04,5.454 L49.05,5.364 C50.328,4.572 51.732,3.51 52.704,2.736 C53.118,2.718 53.298,2.664 53.442,2.502 L51.228,0.522 L49.878,1.818 L43.416,1.818 L43.578,2.322 L49.878,2.322 C49.482,3.186 48.906,4.392 48.384,5.31 L46.872,5.184 L46.872,8.208 L43.722,8.208 L43.866,8.712 L46.872,8.712 L46.872,14.184 C46.872,14.364 46.782,14.454 46.53,14.454 C46.224,14.454 44.874,14.382 44.478,14.346 C44.424,13.68 43.848,12.816 42.336,11.934 C43.398,9.954 43.902,7.686 44.19,5.382 C44.604,5.31 44.784,5.238 44.91,5.04 L42.768,3.168 L41.562,4.446 L40.914,4.446 C41.256,3.114 41.526,1.89 41.724,1.044 C42.282,1.008 42.39,0.81 42.444,0.594 L39.348,0.054 C39.24,1.008 38.916,2.664 38.502,4.446 L36.36,4.446 L36.522,4.95 L38.394,4.95 C37.926,6.966 37.368,9.054 36.936,10.35 C37.908,10.926 38.952,11.7 39.888,12.564 C39.06,14.274 37.908,15.768 36.288,16.938 L36.45,17.118 C38.484,16.254 39.978,15.12 41.094,13.788 C41.544,14.328 41.94,14.868 42.246,15.408 C43.164,16.02 44.37,15.552 44.478,14.598 C45.306,14.76 45.648,15.03 45.918,15.408 C46.188,15.786 46.278,16.38 46.332,17.19 Z M40.518,11.052 C40.104,10.89 39.654,10.728 39.168,10.566 C39.726,8.928 40.302,6.84 40.788,4.95 L41.742,4.95 C41.562,7.074 41.202,9.162 40.518,11.052 Z M61.164,17.118 C62.208,17.118 63.432,16.416 63.432,16.146 L63.432,9.198 L68.022,9.198 C67.914,11.628 67.734,12.996 67.392,13.284 C67.266,13.392 67.14,13.428 66.87,13.428 C66.51,13.428 65.322,13.374 64.584,13.32 L64.566,13.5 C65.394,13.68 65.988,13.986 66.33,14.364 C66.654,14.724 66.726,15.336 66.708,16.092 C67.968,16.092 68.688,15.876 69.282,15.444 C70.236,14.778 70.542,13.212 70.704,9.648 C71.082,9.594 71.28,9.468 71.424,9.306 L69.192,7.452 L67.914,8.64 L68.184,5.094 C68.562,5.022 68.706,4.95 68.85,4.788 L66.438,3.06 L65.466,4.212 L63.432,4.212 L63.432,0.9 C63.882,0.828 63.99,0.648 64.026,0.432 L60.624,0.108 L60.624,4.212 L56.196,4.212 L56.358,4.716 L60.624,4.716 L60.624,8.694 L54.9,8.694 L55.062,9.198 L60.624,9.198 L60.624,17.118 L61.164,17.118 Z M65.97,0.792 L65.862,0.9 C66.96,1.728 68.256,3.132 68.904,4.428 C71.64,5.58 72.792,0.414 65.97,0.792 Z M65.304,8.694 L63.432,8.694 L63.432,4.716 L65.61,4.716 L65.304,8.694 Z" id="热门好书"></path>
                </g>
            </g>
        </g>
    </g>
</svg>