<svg width="16px" height="16px" viewBox="0 0 16 16" version="1.1" xmlns="http://www.w3.org/2000/svg" xmlns:xlink="http://www.w3.org/1999/xlink">
    <title>indent</title>
    <g id="页面-1" stroke="none" stroke-width="1" fill="none" fill-rule="evenodd">
        <g id="读书-目录" transform="translate(-238.000000, -154.000000)" fill-rule="nonzero">
            <g id="编组-24" transform="translate(0.000000, 88.000000)">
                <g id="indent" transform="translate(238.000000, 66.000000)">
                    <rect id="矩形" fill="#000000" opacity="0" x="0" y="0" width="16" height="16"></rect>
                    <path d="M6.375,6.90625 L13.875,6.90625 C13.94375,6.90625 14,6.85 14,6.78125 L14,5.90625 C14,5.8375 13.94375,5.78125 13.875,5.78125 L6.375,5.78125 C6.30625,5.78125 6.25,5.8375 6.25,5.90625 L6.25,6.78125 C6.25,6.85 6.30625,6.90625 6.375,6.90625 Z M6.25,10.09375 C6.25,10.1625 6.30625,10.21875 6.375,10.21875 L13.875,10.21875 C13.94375,10.21875 14,10.1625 14,10.09375 L14,9.21875 C14,9.15 13.94375,9.09375 13.875,9.09375 L6.375,9.09375 C6.30625,9.09375 6.25,9.15 6.25,9.21875 L6.25,10.09375 Z M14.125,2.5 L1.875,2.5 C1.80625,2.5 1.75,2.55625 1.75,2.625 L1.75,3.5 C1.75,3.56875 1.80625,3.625 1.875,3.625 L14.125,3.625 C14.19375,3.625 14.25,3.56875 14.25,3.5 L14.25,2.625 C14.25,2.55625 14.19375,2.5 14.125,2.5 Z M14.125,12.375 L1.875,12.375 C1.80625,12.375 1.75,12.43125 1.75,12.5 L1.75,13.375 C1.75,13.44375 1.80625,13.5 1.875,13.5 L14.125,13.5 C14.19375,13.5 14.25,13.44375 14.25,13.375 L14.25,12.5 C14.25,12.43125 14.19375,12.375 14.125,12.375 Z M3.51516465,6.13687265 C3.47073043,6.03665962 3.38440108,6.03665962 3.33869731,6.13687265 L1.77461272,9.61760541 C1.71621346,9.74676888 1.76826497,9.93828713 1.86221161,9.93828713 L4.98911125,9.93828713 C5.08305789,9.93828713 5.13637895,9.74899584 5.07797969,9.61760541 L3.51516465,6.13687265 Z" id="形状" fill="currentColor"></path>
                </g>
            </g>
        </g>
    </g>
</svg>