<svg width="40px" height="19px" viewBox="0 0 40 19" version="1.1" xmlns="http://www.w3.org/2000/svg" xmlns:xlink="http://www.w3.org/1999/xlink">
    <title>男生</title>
    <g id="页面-1" stroke="none" stroke-width="1" fill="none" fill-rule="evenodd">
        <g id="书城-新用户" transform="translate(-33.000000, -124.000000)" fill="#FFFFFF" fill-rule="nonzero">
            <g id="男生" transform="translate(33.620000, 124.100000)">
                <path d="M10.46,8.16 L10.46,5.3 L13.96,5.3 L13.96,8.16 L10.46,8.16 Z M4.76,8.16 L4.76,5.3 L8.18,5.3 L8.18,8.16 L4.76,8.16 Z M8.18,1.98 L8.18,4.72 L4.76,4.72 L4.76,1.98 L8.18,1.98 Z M13.96,1.98 L13.96,4.72 L10.46,4.72 L10.46,1.98 L13.96,1.98 Z M13.96,9.68 L14.36,9.68 C15.12,9.68 16.3,9.26 16.32,9.12 L16.32,2.38 C16.74,2.3 16.98,2.1 17.1,1.94 L14.86,0.22 L13.76,1.42 L4.94,1.42 L2.44,0.42 L2.44,10.02 L2.8,10.02 C3.76,10.02 4.76,9.5 4.76,9.28 L4.76,8.72 L13.96,8.72 L13.96,9.68 Z M15.82,10.34 L14.62,11.48 L9.96,11.48 C10.1,10.88 10.2,10.26 10.26,9.6 C10.72,9.56 10.96,9.38 11,9.06 L7.68,8.72 C7.68,9.66 7.64,10.6 7.46,11.48 L0.68,11.48 L0.86,12.06 L7.32,12.06 C6.6,14.68 4.68,16.94 0,18.42 L0.12,18.66 C6.38,17.52 8.84,15.18 9.8,12.06 L14.76,12.06 C14.5,14.16 14.1,15.72 13.62,16.06 C13.44,16.2 13.24,16.24 12.9,16.24 C12.42,16.24 10.74,16.12 9.68,16.02 L9.66,16.28 C10.66,16.46 11.56,16.76 11.94,17.14 C12.32,17.46 12.4,18.02 12.4,18.66 C13.66,18.66 14.48,18.44 15.16,18.02 C16.2,17.3 16.82,15.32 17.1,12.44 C17.52,12.4 17.76,12.26 17.92,12.1 L15.82,10.34 Z" id="形状"></path>
                <path d="M34.72,17.1 L30.6,17.1 L30.6,11.1 L36.52,11.1 C36.8,11.1 37,11 37.06,10.78 C36.1,9.96 34.5,8.78 34.5,8.78 L33.1,10.52 L30.6,10.52 L30.6,5.4 L37.06,5.4 C37.38,5.4 37.6,5.3 37.66,5.08 C36.68,4.26 35.14,3.14 35.14,3.14 L33.76,4.84 L30.6,4.84 L30.6,0.9 C31.14,0.82 31.28,0.62 31.34,0.32 L28.02,0 L28.02,4.84 L24.8,4.84 C25.3,3.98 25.72,3.04 26.12,2.02 C26.58,2.02 26.84,1.84 26.9,1.6 L23.54,0.6 C22.84,4.22 21.36,7.84 19.82,10.12 L20.04,10.3 C21.76,9.1 23.24,7.46 24.48,5.4 L28.02,5.4 L28.02,10.52 L22.36,10.52 L22.52,11.1 L28.02,11.1 L28.02,17.1 L20,17.1 L20.16,17.68 L38.2,17.68 C38.5,17.68 38.72,17.58 38.78,17.36 C37.78,16.52 36.16,15.28 36.16,15.28 L34.72,17.1 Z" id="路径"></path>
            </g>
        </g>
    </g>
</svg>