<svg width="24px" height="24px" viewBox="0 0 24 24" version="1.1" xmlns="http://www.w3.org/2000/svg" xmlns:xlink="http://www.w3.org/1999/xlink">
    <title>我的</title>
    <g id="页面-1" stroke="none" stroke-width="1" fill="none" fill-rule="evenodd">
        <g id="列表上拉" transform="translate(-290.000000, -733.000000)">
            <g id="编组-2" transform="translate(0.000000, 723.000000)">
                <g id="编组-40" transform="translate(290.000000, 10.000000)">
                    <g id="编组" transform="translate(4.000000, 2.000000)" fill="currentColor" fill-rule="nonzero">
                        <path d="M8,-0.8 C3.1398942,-0.8 -0.8,3.1398942 -0.8,8 C-0.8,12.8601058 3.1398942,16.8 8,16.8 C12.8601058,16.8 16.8,12.8601058 16.8,8 C16.8,3.1398942 12.8601058,-0.8 8,-0.8 Z M8,0.8 C11.9764502,0.8 15.2,4.0235498 15.2,8 C15.2,11.9764502 11.9764502,15.2 8,15.2 C4.0235498,15.2 0.8,11.9764502 0.8,8 C0.8,4.0235498 4.0235498,0.8 8,0.8 Z" id="椭圆形"></path>
                        <path d="M4.93435976,10.3562398 C5.17944173,9.98861689 5.67613721,9.8892778 6.04376016,10.1343598 C6.71812499,10.5839363 7.36631603,10.8 8,10.8 C8.63368397,10.8 9.28187501,10.5839363 9.95623984,10.1343598 C10.3238628,9.8892778 10.8205583,9.98861689 11.0656402,10.3562398 C11.3107222,10.7238628 11.2113831,11.2205583 10.8437602,11.4656402 C9.91812499,12.0827303 8.96631603,12.4 8,12.4 C7.03368397,12.4 6.08187501,12.0827303 5.15623984,11.4656402 C4.78861689,11.2205583 4.6892778,10.7238628 4.93435976,10.3562398 Z" id="路径-17"></path>
                    </g>
                    <path d="M12,17.2 C16.9058179,17.2 20.4885243,18.6286788 22.6693568,21.5180498 C22.9355306,21.8707017 22.8654262,22.372359 22.5127743,22.6385327 C22.1601224,22.9047064 21.6584652,22.8346021 21.3922914,22.4819502 C19.5476434,20.0379879 16.4431337,18.8 12,18.8 C7.55818003,18.8 4.46742212,20.037054 2.64743524,22.4781732 C2.38334748,22.8323899 1.88211269,22.9054538 1.527896,22.641366 C1.17367932,22.3772783 1.1006154,21.8760435 1.36470316,21.5218268 C3.52100574,18.6296127 7.09286837,17.2 12,17.2 Z" id="路径-2" fill="currentColor" fill-rule="nonzero"></path>
                </g>
            </g>
        </g>
    </g>
</svg>