<svg width="24px" height="24px" viewBox="0 0 24 24" version="1.1" xmlns="http://www.w3.org/2000/svg" xmlns:xlink="http://www.w3.org/1999/xlink">
    <title>我的阅读</title>
    <g id="页面-1" stroke="none" stroke-width="1" fill="none" fill-rule="evenodd">
        <g id="列表上拉" transform="translate(-176.000000, -733.000000)">
            <g id="编组-2" transform="translate(0.000000, 723.000000)">
                <g id="编组-32备份-2" transform="translate(176.000000, 10.000000)">
                    <path d="M19.6493428,2 C20.3654543,2 20.945984,2.58052304 20.945984,3.2966345 C20.945984,3.65882748 20.7944869,4.00451158 20.5281803,4.25 C19.2855396,5.39549892 19.2067906,7.33146859 20.3522896,8.57410928 C20.4085117,8.63509919 20.4671904,8.69377789 20.5281803,8.75 C21.0547095,9.23536851 21.0880769,10.0556737 20.6027083,10.5822029 C20.3572199,10.8485095 20.0115358,11 19.6493428,11 L6.5,11 C4.01471863,11 2,8.98528137 2,6.5 C2,4.01471863 4.01471863,2 6.5,2 L19.6493428,2 Z M18.8338839,3.7569529 L18.953,3.6 L6.5,3.6 C4.95557515,3.6 3.69312782,4.8072893 3.60492294,6.32960297 L3.6,6.5 C3.6,8.04442485 4.8072893,9.30687218 6.32960297,9.39507706 L6.5,9.4 L18.956,9.4 L18.879226,9.30336607 C17.68438,7.72046803 17.6399653,5.56885144 18.7012279,3.94874412 L18.8338839,3.7569529 Z" id="矩形" fill="currentColor" fill-rule="nonzero"></path>
                    <path d="M17.4486783,13 C19.9339597,13 21.9486783,15.0147186 21.9486783,17.5 C21.9486783,19.9852814 19.9339597,22 17.4486783,22 L4.34895061,22 C3.63507041,22 3.05634662,21.4212858 3.05634662,20.7074056 C3.05634662,20.3883098 3.17429933,20.0822051 3.38474023,19.8465261 L3.48051812,19.75 C4.72315881,18.6228397 4.81677416,16.7017364 3.68961386,15.4590957 C3.62335101,15.3860441 3.55356977,15.3162629 3.48051812,15.25 C2.95175763,14.770378 2.91192303,13.9529224 3.39154504,13.424162 C3.63655673,13.1540482 3.98426971,13 4.34895061,13 L17.4486783,13 Z M5.16707829,14.7399823 C6.39053598,16.3881668 6.37079038,18.6385474 5.1678385,20.2599106 L5.058,20.4 L17.4486783,20.4 C18.9931031,20.4 20.2555505,19.1927107 20.3437554,17.670397 L20.3486783,17.5 C20.3486783,15.9555751 19.141389,14.6931278 17.6190753,14.6049229 L17.4486783,14.6 L5.058,14.6 L5.16707829,14.7399823 Z" id="矩形备份-51" fill="currentColor" fill-rule="nonzero"></path>
                </g>
            </g>
        </g>
    </g>
</svg>