<svg width="90px" height="18px" viewBox="0 0 90 18" version="1.1" xmlns="http://www.w3.org/2000/svg" xmlns:xlink="http://www.w3.org/1999/xlink">
    <title>大家都在看</title>
    <g id="页面-1" stroke="none" stroke-width="1" fill="none" fill-rule="evenodd">
        <g id="我的阅读-空" transform="translate(-20.000000, -355.000000)" fill="#222222" fill-rule="nonzero">
            <g id="编组-3备份-4" transform="translate(20.000000, 355.556000)">
                <path d="M15.282,17.172 C15.498,15.66 16.272,14.796 17.604,14.526 L17.622,14.31 C12.762,12.51 10.566,9.36 9.954,6.066 L16.974,6.066 C17.244,6.066 17.46,5.976 17.514,5.778 C17.3124,5.6088 17.08416,5.42304 16.848,5.234112 L16.5620045,5.00673485 C15.6998016,4.325184 14.832,3.672 14.832,3.672 L13.338,5.562 L9.864,5.562 C9.99,4.104 10.008,2.574 10.044,0.99 C10.476,0.918 10.656,0.756 10.71,0.468 L7.128,0.144 C7.128,2.052 7.146,3.852 7.038,5.562 L0.594,5.562 L0.738,6.066 L7.002,6.066 C6.642,10.206 5.328,13.788 0.432,16.938 L0.576,17.172 C7.308,14.706 9.162,11.07 9.738,6.732 C10.206,10.332 11.502,14.742 15.282,17.172 Z M25.398,17.154 C26.82,17.154 27.864,16.938 28.368,16.29 C29.304,15.066 29.412,12.006 27.9,9.45 C28.296,9.378 28.692,9.288 29.088,9.216 C29.826,12.564 31.212,14.436 33.408,15.948 C33.768,14.742 34.488,13.95 35.46,13.734 L35.496,13.536 C33.102,12.78 30.69,11.556 29.484,9.126 C31.068,8.766 32.58,8.352 33.714,7.938 C34.128,8.046 34.308,7.956 34.416,7.812 L31.86,5.67 C30.942,6.57 29.196,7.974 27.594,8.982 C27.18,8.37 26.64,7.776 25.992,7.272 C26.784,6.786 27.486,6.246 28.062,5.67 L32.598,5.67 C32.85,5.67 33.066,5.58 33.102,5.382 C32.94,5.238 32.778,5.094 32.58,4.95 C33.336,4.59 34.236,4.032 34.776,3.582 C35.154,3.564 35.334,3.51 35.478,3.348 L33.336,1.332 L32.112,2.574 L27.792,2.574 C28.98,1.89 28.98,-0.342 25.02,0.144 L24.912,0.234 C25.506,0.72 26.01,1.602 26.082,2.466 C26.154,2.502 26.208,2.538 26.28,2.574 L21.456,2.574 C21.366,2.232 21.258,1.854 21.096,1.476 L20.88,1.476 C20.898,2.376 20.16,3.204 19.566,3.528 C18.936,3.816 18.486,4.392 18.72,5.148 C18.99,5.94 19.962,6.156 20.592,5.76 C21.258,5.346 21.708,4.41 21.546,3.078 L32.31,3.078 C32.31,3.582 32.31,4.194 32.274,4.68 C31.554,4.104 30.852,3.564 30.852,3.564 L29.592,5.166 L21.312,5.166 L21.456,5.67 L24.534,5.67 C23.292,7.056 21.402,8.64 19.332,9.648 L19.44,9.846 C21.51,9.342 23.526,8.622 25.218,7.704 C23.832,9.504 21.456,11.538 19.242,12.636 L19.332,12.834 C21.834,12.222 24.498,11.124 26.37,9.99 L26.388,10.116 C24.714,12.348 21.708,14.526 18.702,15.606 L18.81,15.84 C20.223,15.606 21.6315,15.2325 22.9545,14.76675 L23.418,14.598 L23.418,14.778 C24.174,14.994 24.714,15.264 24.948,15.552 C25.236,15.912 25.38,16.434 25.398,17.154 Z M25.74,14.742 C25.344,14.742 24.358125,14.6815 23.61425,14.6159583 L23.418,14.598 L23.446459,14.5878618 C24.5842734,14.1607969 25.648875,13.667625 26.586,13.14 C26.55,13.752 26.424,14.256 26.28,14.544 C26.19,14.706 25.992,14.742 25.74,14.742 Z M46.944,17.118 C48.222,17.118 48.96,16.542 48.96,16.362 L48.96,2.232 L50.328,2.232 C50.22,3.726 49.896,5.976 49.644,7.236 C50.562,8.388 50.904,9.846 50.904,11.124 C50.904,11.628 50.778,11.898 50.544,12.042 C50.436,12.114 50.346,12.132 50.184,12.132 L49.086,12.132 L49.086,12.348 C49.5,12.456 49.77,12.654 49.914,12.906 C50.076,13.23 50.166,14.274 50.166,14.976 C52.47,14.958 53.262,13.734 53.262,11.88 C53.262,10.332 52.326,8.352 50.112,7.2 C51.174,5.976 52.308,4.104 52.992,2.934 C53.424,2.916 53.658,2.844 53.802,2.664 L51.39,0.504 L50.148,1.728 L49.212,1.728 L46.494,0.486 L46.494,1.89 L44.082,0.702 C43.884,1.278 43.65,1.872 43.38,2.484 C42.93,2.052 42.516,1.674 42.516,1.674 L41.598,3.06 L41.598,0.972 C42.102,0.9 42.228,0.72 42.264,0.468 L39.168,0.216 L39.168,3.096 L36.738,3.096 L36.882,3.6 L39.168,3.6 L39.168,6.354 L36.288,6.354 L36.432,6.858 L40.878,6.858 C40.5,7.362 40.122,7.848 39.726,8.334 L38.16,7.758 L38.16,10.008 C37.53,10.602 36.882,11.142 36.18,11.646 L36.342,11.844 C36.972,11.556 37.584,11.232 38.16,10.872 L38.16,17.046 L38.592,17.046 C39.78,17.046 40.5,16.542 40.5,16.38 L40.5,15.264 L42.588,15.264 L42.588,16.866 L43.002,16.866 C43.812,16.866 45,16.416 45.018,16.29 L45.018,9.558 C45.36,9.486 45.576,9.324 45.684,9.198 L43.488,7.524 L42.408,8.694 L41.094,8.694 C41.742,8.1 42.336,7.488 42.876,6.858 L46.26,6.858 C46.35,6.858 46.422,6.84 46.494,6.822 L46.494,17.118 L46.944,17.118 Z M43.902,6.354 L43.308,6.354 C44.406,4.986 45.306,3.582 45.99,2.25 C46.206,2.286 46.368,2.268 46.494,2.232 L46.494,6.318 C46.4156471,6.24388235 46.3340554,6.16802076 46.2510714,6.09185141 L45.9997895,5.8638563 C45.4542976,5.37408997 44.928,4.932 44.928,4.932 L43.902,6.354 Z M41.598,5.778 L41.598,3.6 L42.858,3.6 C42.48,4.32 42.066,5.058 41.598,5.778 Z M42.588,11.736 L40.5,11.736 L40.5,9.198 L42.588,9.198 L42.588,11.736 Z M42.588,14.76 L40.5,14.76 L40.5,12.24 L42.588,12.24 L42.588,14.76 Z M57.744,17.1 C58.77,17.1 59.85,16.596 59.886,16.416 L59.886,8.604 C60.228,8.532 60.39,8.424 60.462,8.244 L59.76,7.992 C60.732,6.84 61.524,5.598 62.172,4.356 L70.83,4.356 C71.1,4.356 71.298,4.266 71.352,4.068 C70.48575,3.3435 69.123375,2.30203125 68.7963164,2.05298438 L68.724,1.998 L68.724,1.998 L67.266,3.852 L62.424,3.852 C62.838,3.006 63.198,2.142 63.486,1.332 C63.954,1.296 64.116,1.134 64.17,0.918 L60.534,0 C60.3,1.188 59.958,2.502 59.472,3.852 L54.774,3.852 L54.918,4.356 L59.292,4.356 C58.23,7.128 56.628,9.954 54.342,11.988 L54.486,12.15 C55.494,11.646 56.412,11.07 57.24,10.422 L57.24,17.1 L57.744,17.1 Z M70.992,15.93 C71.262,15.93 71.478,15.84 71.532,15.642 C70.578,14.85 69.03,13.68 69.03,13.68 L67.644,15.426 L66.348,15.426 L66.348,9.9 L69.912,9.9 C70.164,9.9 70.38,9.81 70.416,9.612 C69.552,8.856 68.112,7.776 68.112,7.776 L66.834,9.396 L66.348,9.396 L66.348,5.868 C66.78,5.796 66.906,5.634 66.924,5.4 L63.702,5.13 L63.702,9.396 L60.48,9.396 L60.624,9.9 L63.702,9.9 L63.702,15.426 L60.03,15.426 L60.174,15.93 L70.992,15.93 Z M77.328,17.172 C78.642,17.172 79.416,16.614 79.416,16.434 L79.416,15.786 L84.546,15.786 L84.546,17.1 L84.996,17.1 C85.86,17.1 87.138,16.614 87.156,16.47 L87.156,9.252 C87.48,9.18 87.678,9.036 87.786,8.91 L85.5,7.164 L84.366,8.388 L79.668,8.388 L78.876,8.1 C79.11,7.776 79.344,7.434 79.56,7.092 L88.992,7.092 C89.262,7.092 89.478,7.002 89.514,6.804 C89.3183478,6.63965217 89.0946238,6.45999244 88.8642794,6.27944506 L88.5860613,6.06328528 C87.8429943,5.4906465 87.12,4.968 87.12,4.968 L85.806,6.588 L79.848,6.588 C80.154,6.048 80.424,5.49 80.658,4.914 L87.858,4.914 C88.11,4.914 88.308,4.824 88.362,4.626 C87.48,3.888 86.04,2.862 86.04,2.862 L84.78,4.41 L80.856,4.41 C81.072,3.87 81.234,3.312 81.396,2.736 C83.394,2.61 85.248,2.43 86.742,2.232 C87.372,2.484 87.804,2.484 88.02,2.304 L85.824,0.054 C83.07,1.008 77.688,2.124 73.53,2.628 L73.566,2.898 C75.15,2.934 76.86,2.916 78.552,2.862 C78.426,3.384 78.3,3.906 78.138,4.41 L73.962,4.41 L74.106,4.914 L77.976,4.914 C77.778,5.472 77.562,6.048 77.328,6.588 L72.72,6.588 L72.864,7.092 L77.094,7.092 C75.996,9.342 74.448,11.376 72.45,12.87 L72.612,13.05 C74.25,12.294 75.654,11.376 76.842,10.314 L76.842,17.172 L77.328,17.172 Z M84.546,10.566 L79.416,10.566 L79.416,8.892 L84.546,8.892 L84.546,10.566 Z M84.546,12.888 L79.416,12.888 L79.416,11.07 L84.546,11.07 L84.546,12.888 Z M84.546,15.282 L79.416,15.282 L79.416,13.392 L84.546,13.392 L84.546,15.282 Z" id="大家都在看"></path>
            </g>
        </g>
    </g>
</svg>