<svg width="12px" height="12px" viewBox="0 0 12 12" version="1.1" xmlns="http://www.w3.org/2000/svg" xmlns:xlink="http://www.w3.org/1999/xlink">
    <title>sync</title>
    <g id="页面-1" stroke="none" stroke-width="1" fill="none" fill-rule="evenodd">
        <g id="书城-新用户" transform="translate(-343.000000, -213.000000)" fill-rule="nonzero">
            <g id="编组-14" transform="translate(20.000000, 209.000000)">
                <g id="编组-6" transform="translate(277.000000, 0.000000)">
                    <g id="sync" transform="translate(46.000000, 4.000000)">
                        <rect id="矩形" fill="#000000" opacity="0" x="0" y="0" width="12" height="12"></rect>
                        <path d="M1.96875,5.90859375 C1.98046875,5.39648438 2.0859375,4.89960938 2.28398437,4.43203125 C2.48671875,3.9515625 2.77734375,3.52148438 3.14765625,3.15 C3.51796875,2.77851562 3.94921875,2.48789063 4.4296875,2.28515625 C4.9265625,2.07539063 5.45390625,1.96875 5.99882812,1.96875 C6.54375,1.96875 7.07109375,2.07539063 7.56679687,2.28515625 C8.04609375,2.48789063 8.47734375,2.77851563 8.84765625,3.15 C8.96367187,3.26601563 9.07265625,3.3890625 9.1734375,3.51796875 L8.46796875,4.06875 C8.40585937,4.11679688 8.42695312,4.21523438 8.503125,4.23398438 L10.5621094,4.73789063 C10.6207031,4.75195313 10.678125,4.70742188 10.678125,4.64765625 L10.6875,2.52773438 C10.6875,2.44921875 10.5972656,2.4046875 10.5363281,2.45390625 L9.87539062,2.97070313 C8.97421875,1.81757813 7.57265625,1.078125 5.99765625,1.078125 C3.31289062,1.078125 1.12851562,3.2296875 1.07810116,5.90390625 C1.07695312,5.95664063 1.11914062,6 1.171875,6 L1.875,6 C1.9265625,6 1.96757812,5.95898438 1.96875,5.90859375 Z M10.828125,6 L10.125,6 C10.0734375,6 10.0324219,6.04101562 10.03125,6.09140625 C10.0195313,6.60351562 9.9140625,7.10039063 9.71601563,7.56796875 C9.51328125,8.0484375 9.22265625,8.4796875 8.85234375,8.85 C8.48203125,9.2203125 8.05078125,9.51210938 7.5703125,9.71484375 C7.0734375,9.92460938 6.54609375,10.03125 6.00117188,10.03125 C5.45625,10.03125 4.92890625,9.92460938 4.43203125,9.71484375 C3.95273438,9.51210938 3.52148438,9.22148438 3.15117188,8.85 C3.03515625,8.73398438 2.92617188,8.6109375 2.82539063,8.48203125 L3.53085938,7.93125 C3.59296875,7.88320313 3.571875,7.78476563 3.49570313,7.76601563 L1.43671875,7.26210938 C1.378125,7.24804688 1.32070313,7.29257813 1.32070313,7.35234375 L1.3125,9.4734375 C1.3125,9.55195313 1.40273438,9.59648438 1.46367188,9.54726563 L2.12460938,9.03046875 C3.02578125,10.1824219 4.42734375,10.921875 6.00234375,10.921875 C8.68828125,10.921875 10.8714844,8.76914063 10.9218988,6.09609375 C10.9230469,6.04335938 10.8808594,6 10.828125,6 Z" id="形状" fill="#969799"></path>
                    </g>
                </g>
            </g>
        </g>
    </g>
</svg>