<svg width="72px" height="18px" viewBox="0 0 72 18" version="1.1" xmlns="http://www.w3.org/2000/svg" xmlns:xlink="http://www.w3.org/1999/xlink">
    <title>分类排行</title>
    <g id="页面-1" stroke="none" stroke-width="1" fill="none" fill-rule="evenodd">
        <g id="书城" transform="translate(-20.000000, -863.000000)" fill="#222222" fill-rule="nonzero">
            <g id="编组-3备份-2" transform="translate(20.000000, 863.466000)">
                <path d="M15.84,9.108 C16.146,8.118 16.992,7.092 17.748,6.75 L17.784,6.534 C15.318,5.598 12.69,3.834 11.412,1.584 C11.754,1.17 12.006,0.81 12.15,0.522 L10.602,0 L10.422,0.09 C11.268,4.536 13.05,7.29 15.84,9.108 Z M0.504,9 C4.338,7.488 6.858,4.554 8.28,1.908 C8.73,1.908 8.892,1.764 8.964,1.584 L5.634,0.288 C4.896,3.042 3.096,6.606 0.378,8.838 L0.504,9 Z M9.612,17.28 C10.98,17.28 11.736,17.046 12.42,16.506 C13.482,15.678 13.878,13.428 14.112,8.766 C14.508,8.712 14.724,8.586 14.868,8.424 L12.672,6.534 L11.34,7.812 L2.97,7.812 L3.132,8.316 L5.976,8.316 C5.868,10.98 5.436,14.13 0.864,17.046 L1.026,17.28 C7.362,14.94 8.46,11.52 8.838,8.316 L11.52,8.316 C11.34,11.844 11.052,14.004 10.53,14.418 C10.368,14.544 10.206,14.598 9.918,14.598 C9.468,14.598 8.1,14.526 7.164,14.454 L7.164,14.652 C8.082,14.832 8.802,15.156 9.18,15.552 C9.522,15.912 9.63,16.524 9.612,17.28 Z M33.732,17.244 C33.984,15.984 34.632,15.12 35.64,14.796 L35.64,14.598 C32.526,14.4 29.412,13.788 27.918,11.664 L35.046,11.664 C35.316,11.664 35.514,11.574 35.568,11.376 C34.722,10.62 33.318,9.486 33.318,9.486 L32.058,11.16 L27.684,11.16 C27.756,10.746 27.792,10.314 27.846,9.864 C28.26,9.81 28.44,9.612 28.476,9.36 L25.596,9.162 L25.992,9.162 C27,9.162 28.17,8.694 28.17,8.514 L28.17,5.742 C29.628,6.732 31.302,8.19 32.256,9.468 C35.01,10.278 35.64,5.274 28.17,5.256 L28.17,5.022 L34.776,5.022 C35.046,5.022 35.244,4.932 35.298,4.734 C34.434,3.978 32.994,2.898 32.994,2.898 L31.734,4.518 L29.16,4.518 C30.456,3.798 31.932,2.826 32.814,2.16 C33.228,2.196 33.444,2.07 33.534,1.854 L30.42,0.756 C30.006,1.836 29.286,3.402 28.638,4.518 L28.17,4.518 L28.17,0.936 C28.638,0.864 28.746,0.684 28.782,0.468 L25.506,0.18 L25.506,4.518 L18.81,4.518 L18.954,5.022 L23.85,5.022 C22.698,6.822 20.772,8.73 18.522,9.954 L18.63,10.17 C21.348,9.378 23.742,8.226 25.506,6.732 L25.506,9.162 L25.074,9.126 C25.056,9.846 25.02,10.53 24.93,11.16 L18.468,11.16 L18.612,11.664 L24.858,11.664 C24.408,13.896 23.04,15.534 18.36,16.974 L18.45,17.226 C25.38,16.218 27,14.418 27.576,11.754 C28.638,14.976 30.69,16.308 33.732,17.244 Z M21.024,0.864 L20.898,0.954 C21.546,1.71 22.302,2.862 22.59,3.942 C24.822,5.292 26.532,1.098 21.024,0.864 Z M44.928,17.226 C45.846,17.226 46.89,16.632 46.89,16.398 L46.89,0.954 C47.376,0.882 47.52,0.702 47.556,0.45 L44.478,0.144 L44.478,3.87 L42.48,3.87 L42.606,4.266 L42.5036689,4.15416357 L42.5036689,4.15416357 L42.2958428,3.93080713 C41.8457813,3.45178125 41.418,3.024 41.418,3.024 L40.734,4.14 L40.734,0.936 C41.184,0.882 41.364,0.702 41.4,0.432 L38.304,0.144 L38.304,4.464 L36.378,4.464 L36.522,4.968 L38.304,4.968 L38.304,8.154 C37.404,8.406 36.684,8.604 36.252,8.694 L37.224,11.502 C37.458,11.43 37.638,11.196 37.71,10.962 L38.304,10.548 L38.304,14.004 C38.304,14.184 38.232,14.274 37.962,14.274 C37.602,14.274 36.054,14.184 36.054,14.184 L36.054,14.436 C36.864,14.598 37.206,14.868 37.458,15.3 C37.692,15.714 37.782,16.326 37.836,17.208 C40.41,16.956 40.734,15.984 40.734,14.238 L40.734,8.712 C41.58,8.046 42.228,7.47 42.732,7.02 L42.696,6.858 C42.048,7.074 41.382,7.272 40.734,7.47 L40.734,4.968 L42.498,4.968 C42.732,4.968 42.912,4.878 42.966,4.68 C42.894,4.59 42.804,4.482 42.696,4.374 L44.478,4.374 L44.478,7.578 L42.246,7.578 L42.408,8.082 L44.478,8.082 L44.478,11.628 L41.832,11.628 L41.994,12.132 L44.478,12.132 L44.478,17.226 L44.928,17.226 Z M48.492,17.28 C49.41,17.28 50.454,16.686 50.454,16.452 L50.454,12.114 L53.154,12.114 C53.406,12.114 53.586,12.024 53.64,11.826 C52.974,11.106 51.786,10.026 51.786,10.026 L50.742,11.61 L50.454,11.61 L50.454,8.046 L52.848,8.046 C53.1,8.046 53.28,7.956 53.334,7.758 C52.722,7.092 51.624,6.102 51.624,6.102 L50.652,7.542 L50.454,7.542 L50.454,4.374 L53.118,4.374 C53.37,4.374 53.55,4.284 53.604,4.086 C52.938,3.366 51.75,2.286 51.75,2.286 L50.706,3.87 L50.454,3.87 L50.454,1.008 C50.94,0.936 51.084,0.756 51.12,0.504 L48.042,0.198 L48.042,17.28 L48.492,17.28 Z M54.828,5.58 C57.06,4.734 59.202,3.366 60.588,2.196 C61.002,2.268 61.182,2.16 61.29,1.98 L58.464,0.198 C57.762,1.656 56.196,3.942 54.684,5.4 L54.828,5.58 Z M70.524,2.556 C70.776,2.556 70.974,2.466 71.028,2.268 C70.218,1.53 68.832,0.432 68.832,0.432 L67.608,2.052 L62.01,2.052 L62.154,2.556 L70.524,2.556 Z M57.51,17.262 C58.518,17.262 59.598,16.794 59.634,16.614 L59.634,8.064 C59.976,7.992 60.138,7.866 60.192,7.704 L59.364,7.398 C59.976,6.84 60.516,6.282 60.984,5.778 C61.434,5.832 61.614,5.706 61.704,5.544 L58.698,3.78 C57.87,5.706 56.034,8.802 54.198,10.818 L54.342,10.98 C55.278,10.494 56.178,9.936 57.024,9.324 L57.024,17.262 L57.51,17.262 Z M65.088,17.082 C68.148,16.902 68.634,15.75 68.634,14.058 L68.634,6.714 L71.046,6.714 C71.316,6.714 71.514,6.624 71.568,6.426 C70.722,5.652 69.282,4.518 69.282,4.518 L68.004,6.21 L60.984,6.21 L61.128,6.714 L65.97,6.714 L65.97,13.986 C65.97,14.202 65.862,14.328 65.556,14.328 C65.034,14.328 62.28,14.166 62.28,14.166 L62.28,14.382 C63.576,14.598 64.044,14.886 64.458,15.246 C64.872,15.624 65.034,16.254 65.088,17.082 Z" id="分类排行"></path>
            </g>
        </g>
    </g>
</svg>